<?xml version="1.0" encoding="UTF-8"?>
<svg id="Layer_1" xmlns="http://www.w3.org/2000/svg" xmlns:xlink="http://www.w3.org/1999/xlink" version="1.1" viewBox="0 0 375 720">
  <!-- Generator: Adobe Illustrator 29.1.0, SVG Export Plug-In . SVG Version: 2.1.0 Build 142)  -->
  <defs>
    <style>
      .st0, .st1 {
        fill: none;
      }

      .st2 {
        fill: #f1f1f1;
      }

      .st3 {
        fill: #c5bcac;
      }

      .st4 {
        fill: #e0e0e0;
      }

      .st5 {
        fill: #6d6d6d;
      }

      .st6 {
        fill: #dfdfdf;
      }

      .st7 {
        fill: #a7a7a7;
      }

      .st8 {
        fill: #d6d6d6;
      }

      .st9 {
        fill: #bdbdbd;
      }

      .st10 {
        fill: url(#linear-gradient2);
      }

      .st11 {
        fill: url(#linear-gradient1);
      }

      .st12 {
        fill: url(#linear-gradient9);
      }

      .st13 {
        fill: url(#linear-gradient3);
      }

      .st14 {
        fill: url(#linear-gradient6);
      }

      .st15 {
        fill: url(#linear-gradient8);
      }

      .st16 {
        fill: url(#linear-gradient7);
      }

      .st17 {
        fill: url(#linear-gradient5);
      }

      .st18 {
        fill: url(#linear-gradient4);
      }

      .st19 {
        fill: #7c7c7c;
      }

      .st20 {
        fill: #eaeaea;
      }

      .st21 {
        fill: #3c3c3c;
      }

      .st22 {
        fill: #9c9c9c;
      }

      .st23 {
        fill: #e3e3e3;
      }

      .st24 {
        fill: #d2d2d2;
      }

      .st25 {
        fill: #e6e6e6;
      }

      .st26 {
        fill: #b5b5b5;
      }

      .st27 {
        fill: url(#linear-gradient12);
      }

      .st28 {
        fill: url(#linear-gradient11);
      }

      .st29 {
        fill: url(#linear-gradient10);
      }

      .st30 {
        fill: #d0d0d0;
      }

      .st31 {
        fill: #e2e2e2;
      }

      .st32 {
        fill: #efefef;
      }

      .st33 {
        fill: #e4e4e4;
      }

      .st34 {
        fill: #f6f6f6;
      }

      .st35 {
        fill: #ebebeb;
      }

      .st36 {
        fill: #d9d9d9;
      }

      .st37 {
        fill: #a1a1a1;
      }

      .st38 {
        fill: #f4f4f4;
      }

      .st39 {
        fill: #dbdbdb;
      }

      .st40 {
        fill: #979797;
      }

      .st41 {
        fill: #868686;
      }

      .st42 {
        fill: #cecece;
      }

      .st43 {
        fill: url(#radial-gradient);
      }

      .st44 {
        fill: #969696;
      }

      .st45 {
        fill: #c1c1c1;
      }

      .st46 {
        fill: url(#linear-gradient);
      }

      .st47 {
        fill: #5a5a5a;
      }

      .st48 {
        fill: #d4d4d4;
      }

      .st49 {
        fill: url(#radial-gradient4);
        fill-opacity: .4;
      }

      .st50, .st51, .st52, .st53, .st54, .st55, .st56, .st57, .st58 {
        fill: #808184;
      }

      .st59 {
        fill: #b4b4b4;
      }

      .st60, .st61, .st62, .st63, .st64, .st65, .st66, .st67, .st68, .st69, .st70, .st71, .st72, .st73, .st74, .st75, .st76, .st77, .st78, .st79, .st80 {
        fill: #e5e5e5;
      }

      .st81 {
        fill: #ccc;
      }

      .st82 {
        fill: #a69b92;
      }

      .st83 {
        fill: #d8d8d8;
      }

      .st84 {
        fill: #c3c3c3;
      }

      .st85 {
        fill: #c4c4c4;
      }

      .st86 {
        fill: #b1b1b1;
      }

      .st87 {
        fill: #dedede;
      }

      .st88 {
        fill: #a0a0a0;
      }

      .st1 {
        stroke: #231f20;
        stroke-miterlimit: 10;
        stroke-width: .5px;
      }

      .st89 {
        fill: #c6c6c6;
      }

      .st90 {
        fill: #5d5d5d;
      }

      .st91 {
        fill: #303030;
      }

      .st92 {
        fill: #bebebe;
      }

      .st93 {
        fill: #ddd;
      }

      .st94 {
        clip-path: url(#clippath-1);
      }

      .st95 {
        clip-path: url(#clippath-3);
      }

      .st96 {
        clip-path: url(#clippath-4);
      }

      .st97 {
        clip-path: url(#clippath-2);
      }

      .st98 {
        clip-path: url(#clippath-7);
      }

      .st99 {
        clip-path: url(#clippath-6);
      }

      .st100 {
        clip-path: url(#clippath-5);
      }

      .st101 {
        fill: #d7d5c8;
      }

      .st102 {
        fill: #717171;
      }

      .st103 {
        fill: #c9c9c9;
      }

      .st104 {
        fill: #e7e7e7;
      }

      .st105 {
        fill: #b0b0b0;
      }

      .st106 {
        fill: #d7d7d7;
      }

      .st107 {
        fill: #b7b7b7;
      }

      .st51, .st52, .st53, .st54, .st55, .st56, .st57, .st58, .st61, .st62, .st63, .st64, .st65, .st66, .st67, .st68, .st69, .st70, .st71, .st72, .st73, .st74, .st75, .st76, .st77, .st78, .st79, .st80 {
        isolation: isolate;
      }

      .st51, .st63 {
        opacity: .3;
      }

      .st52 {
        opacity: .1;
      }

      .st53, .st78 {
        opacity: .7;
      }

      .st54 {
        opacity: .6;
      }

      .st55 {
        opacity: .2;
      }

      .st56 {
        opacity: .8;
      }

      .st57 {
        opacity: .4;
      }

      .st58 {
        opacity: .9;
      }

      .st108 {
        fill: #848484;
      }

      .st109 {
        fill: #fff;
      }

      .st61 {
        opacity: 0;
      }

      .st62 {
        opacity: .3;
      }

      .st64 {
        opacity: .2;
      }

      .st65 {
        opacity: .5;
      }

      .st66 {
        opacity: .1;
      }

      .st67 {
        opacity: .1;
      }

      .st68 {
        opacity: .2;
      }

      .st69 {
        opacity: .7;
      }

      .st70 {
        opacity: .8;
      }

      .st71 {
        opacity: .9;
      }

      .st72 {
        opacity: .8;
      }

      .st73 {
        opacity: .9;
      }

      .st74 {
        opacity: .6;
      }

      .st75 {
        opacity: .5;
      }

      .st76 {
        opacity: .6;
      }

      .st77 {
        opacity: .4;
      }

      .st79 {
        opacity: .4;
      }

      .st80 {
        opacity: .9;
      }

      .st110 {
        fill: #646464;
      }

      .st111 {
        fill: #f9f9f9;
      }

      .st112 {
        fill: #f0f0f0;
      }

      .st113 {
        fill: #bcbcbc;
      }

      .st114 {
        fill: #c5c5c5;
      }

      .st115 {
        fill: #cdcdcd;
      }

      .st116 {
        fill: #bababa;
      }

      .st117 {
        fill: #fafafa;
      }

      .st118 {
        fill: #bbb;
      }

      .st119 {
        fill: #f9f4e3;
      }

      .st120 {
        fill: #e9e9e9;
      }

      .st121 {
        fill: #f8f8f8;
      }

      .st122 {
        fill: silver;
      }

      .st123 {
        fill: #b8b8b8;
      }

      .st124 {
        fill: #959595;
      }

      .st125 {
        fill: #f7f7f7;
      }

      .st126 {
        fill: #8b8b8b;
      }

      .st127 {
        fill: #fefefe;
      }

      .st128 {
        fill: #747474;
      }

      .st129 {
        fill: red;
      }

      .st130 {
        fill: #d5d5d5;
      }

      .st131 {
        fill: #acacac;
      }

      .st132 {
        fill: #f2f2f2;
      }

      .st133 {
        fill: url(#radial-gradient1);
      }

      .st134 {
        fill: url(#radial-gradient3);
      }

      .st135 {
        fill: url(#radial-gradient2);
      }

      .st136 {
        fill: url(#radial-gradient5);
      }

      .st137 {
        fill: #f5f5f5;
      }

      .st138 {
        fill: #b3b3b3;
      }

      .st139 {
        fill: #e1e1e1;
      }

      .st140 {
        fill: #bfbfbf;
      }

      .st141 {
        fill: #f3f3f3;
      }

      .st142 {
        fill: #fbfbfb;
      }

      .st143 {
        fill: #fcfcfc;
      }

      .st144 {
        fill: #c2c2c2;
      }

      .st145 {
        fill: #b9b9b9;
      }

      .st146 {
        fill: #cbcbcb;
      }

      .st147 {
        fill: #aeaeae;
      }

      .st148 {
        fill: #6e6e6e;
      }

      .st149 {
        fill: #a8a8a8;
      }

      .st150 {
        fill: #a4a4a4;
      }

      .st151 {
        fill: #616161;
      }

      .st152 {
        fill: #ededed;
      }

      .st153 {
        fill: #c8c8c8;
      }

      .st154 {
        fill: #d3d3d3;
      }

      .st155 {
        fill: #dadada;
      }

      .st156 {
        fill: #d1d1d1;
      }

      .st157 {
        fill: #eee;
      }

      .st158 {
        fill: #888;
      }

      .st159 {
        fill: #dcdcdc;
      }

      .st160 {
        clip-path: url(#clippath);
      }

      .st161 {
        fill: #cacaca;
      }

      .st162 {
        fill: #898989;
      }

      .st163 {
        fill: #999;
      }

      .st164 {
        fill: #cfcfcf;
      }

      .st165 {
        fill: #e8e8e8;
      }

      .st166 {
        fill: #b2b2b2;
      }

      .st167 {
        fill: #686868;
      }

      .st168 {
        fill: #ececec;
      }

      .st169 {
        fill: #fdfdfd;
      }
    </style>
    <clipPath id="clippath">
      <rect class="st0" x="0" y=".3" width="375" height="720"/>
    </clipPath>
    <clipPath id="clippath-1">
      <rect class="st0" x="-178" y="-5.7" width="732" height="732"/>
    </clipPath>
    <linearGradient id="linear-gradient" x1="188" y1="723.3" x2="188" y2="-80.9" gradientTransform="translate(0 717.5) scale(1 -1)" gradientUnits="userSpaceOnUse">
      <stop offset="0" stop-color="#b3b3b3"/>
      <stop offset=".1" stop-color="#d4d4d4"/>
      <stop offset=".3" stop-color="#ebebeb"/>
      <stop offset=".4" stop-color="#fafafa"/>
      <stop offset=".5" stop-color="#fff"/>
      <stop offset=".6" stop-color="#fbfbfb"/>
      <stop offset=".7" stop-color="#efefef"/>
      <stop offset=".8" stop-color="#ddd"/>
      <stop offset=".9" stop-color="#c2c2c2"/>
      <stop offset="1" stop-color="#9f9f9f"/>
    </linearGradient>
    <radialGradient id="radial-gradient" cx="21.6" cy="405.7" fx="21.6" fy="405.7" r="1" gradientTransform="translate(-97763.2 -483) rotate(90) scale(29.8 -241.5)" gradientUnits="userSpaceOnUse">
      <stop offset="0" stop-color="#fff"/>
      <stop offset="1" stop-color="#fff" stop-opacity="0"/>
    </radialGradient>
    <radialGradient id="radial-gradient1" cx="18.7" cy="405.4" fx="18.7" fy="405.4" r="1" gradientTransform="translate(793.6 -97693.9) rotate(-180) scale(23.4 -241.5)" xlink:href="#radial-gradient"/>
    <radialGradient id="radial-gradient2" cx="19.3" cy="405.1" fx="19.3" fy="405.1" r="1" gradientTransform="translate(548.8 -97274.5) rotate(-180) scale(23.4 -241.5)" xlink:href="#radial-gradient"/>
    <radialGradient id="radial-gradient3" cx="26.8" cy="405.5" fx="26.8" fy="405.5" r="1" gradientTransform="translate(1787.3 -251548.8) rotate(-180) scale(60.1 -621)" xlink:href="#radial-gradient"/>
    <radialGradient id="radial-gradient4" cx="19.6" cy="405" fx="19.6" fy="405" r="1" gradientTransform="translate(652.9 -97183.2) rotate(-180) scale(23.4 -241.5)" xlink:href="#radial-gradient"/>
    <radialGradient id="radial-gradient5" cx="18.7" cy="405.4" fx="18.7" fy="405.4" r="1" gradientTransform="translate(554.3 -97384.4) rotate(-180) scale(23.4 -241.5)" xlink:href="#radial-gradient"/>
    <clipPath id="clippath-2">
      <rect class="st0" x="106" y="492.3" width="20.5" height="17.2"/>
    </clipPath>
    <clipPath id="clippath-3">
      <rect class="st0" x="43" y="453.3" width="33.3" height="27.8"/>
    </clipPath>
    <clipPath id="clippath-4">
      <rect class="st0" x="159" y="400.3" width="270" height="148"/>
    </clipPath>
    <clipPath id="clippath-5">
      <rect class="st0" x="114" y="394.3" width="134" height="78"/>
    </clipPath>
    <linearGradient id="linear-gradient1" x1="243.3" y1="286.2" x2="232.7" y2="246.2" gradientTransform="translate(0 717.5) scale(1 -1)" gradientUnits="userSpaceOnUse">
      <stop offset="0" stop-color="#fff"/>
      <stop offset="1" stop-color="#231f20"/>
    </linearGradient>
    <linearGradient id="linear-gradient2" x1="207" y1="262" x2="200.8" y2="235.4" xlink:href="#linear-gradient1"/>
    <linearGradient id="linear-gradient3" x1="216.8" y1="311.9" x2="196.5" y2="259.2" xlink:href="#linear-gradient1"/>
    <linearGradient id="linear-gradient4" x1="225.4" y1="306.5" x2="196.2" y2="269.7" xlink:href="#linear-gradient1"/>
    <linearGradient id="linear-gradient5" x1="192.2" y1="293" x2="187.7" y2="315.8" xlink:href="#linear-gradient1"/>
    <linearGradient id="linear-gradient6" x1="244.2" y1="297.2" x2="168.3" y2="291" xlink:href="#linear-gradient1"/>
    <linearGradient id="linear-gradient7" x1="206.2" y1="280.3" x2="246.5" y2="275.7" gradientTransform="translate(0 717.5) scale(1 -1)" gradientUnits="userSpaceOnUse">
      <stop offset="0" stop-color="#fff"/>
      <stop offset=".1" stop-color="#f6f6f6"/>
      <stop offset=".3" stop-color="#dedede"/>
      <stop offset=".5" stop-color="#b7b7b7"/>
      <stop offset=".6" stop-color="#adadad"/>
      <stop offset=".6" stop-color="#b0b0b0"/>
      <stop offset=".7" stop-color="#ccc"/>
      <stop offset=".8" stop-color="#e0e0e0"/>
      <stop offset=".9" stop-color="#ececec"/>
      <stop offset="1" stop-color="#f1f1f1"/>
    </linearGradient>
    <linearGradient id="linear-gradient8" x1="210.5" y1="281.8" x2="233" y2="251.2" xlink:href="#linear-gradient1"/>
    <linearGradient id="linear-gradient9" x1="224.9" y1="247.4" x2="219.9" y2="274.7" xlink:href="#linear-gradient1"/>
    <linearGradient id="linear-gradient10" x1="187.2" y1="282.6" x2="214.6" y2="285" xlink:href="#linear-gradient1"/>
    <linearGradient id="linear-gradient11" x1="180.4" y1="268" x2="189.8" y2="307.8" xlink:href="#linear-gradient1"/>
    <linearGradient id="linear-gradient12" x1="180.8" y1="273.8" x2="217" y2="278.2" xlink:href="#linear-gradient1"/>
    <clipPath id="clippath-6">
      <rect class="st0" x="126" y="399.3" width="24.4" height="20.4"/>
    </clipPath>
    <clipPath id="clippath-7">
      <rect class="st0" x="82" y="144" width="196" height="23"/>
    </clipPath>
  </defs>
  <g class="st160">
    <g>
      <rect class="st109" x="0" y=".3" width="375" height="720"/>
      <g class="st94">
        <g>
          <path class="st46" d="M554-5.7H-178v732h732V-5.7Z"/>
          <ellipse class="st43" cx="204.3" cy="159.7" rx="241.5" ry="29.8" transform="translate(-33.1 55.3) rotate(-14.3)"/>
          <ellipse class="st133" cx="356.8" cy="191.2" rx="23.4" ry="241.5" transform="translate(160.4 545.1) rotate(-89.2)"/>
          <ellipse class="st135" cx="97.8" cy="547.2" rx="23.4" ry="241.5" transform="translate(-457.5 521.9) rotate(-77.3)"/>
          <ellipse class="st134" cx="173.8" cy="262.3" rx="60.1" ry="621" transform="translate(-94.5 426.7) rotate(-88)"/>
          <ellipse class="st49" cx="193.8" cy="617" rx="23.4" ry="241.5" transform="translate(-452.9 622.6) rotate(-73.1)"/>
        </g>
      </g>
      <ellipse class="st136" cx="116.7" cy="494.3" rx="23.4" ry="241.5" transform="translate(-381.5 593.5) rotate(-88)"/>
      <g class="st97">
        <g>
          <path class="st61" d="M113.3,502.1l-5,1.1-2.1,2.1,1.6,2.2,4.7,1.6,6,.3,5-1.1,2.1-2.1-1.6-2.2-4.7-1.6-6-.3Z"/>
          <path class="st67" d="M113.4,502.2l-4.9,1.1-2,2,1.6,2.2,4.6,1.5,5.9.3,4.9-1.1,2-2-1.6-2.2-4.6-1.5-5.9-.3Z"/>
          <path class="st66" d="M113.5,502.3l-4.8,1-2,2,1.6,2.2,4.6,1.5,5.8.3,4.8-1.1,2-2-1.6-2.2-4.6-1.5-5.8-.3Z"/>
          <path class="st64" d="M113.6,502.3l-4.7,1-2,1.9,1.6,2.1,4.5,1.5,5.7.3,4.7-1,2-1.9-1.6-2.1-4.5-1.5-5.7-.3Z"/>
          <path class="st68" d="M113.8,502.4l-4.6,1-1.9,1.9,1.5,2.1,4.4,1.5,5.6.3,4.6-1,1.9-1.9-1.5-2.1-4.4-1.5-5.6-.3Z"/>
          <path class="st62" d="M113.9,502.4l-4.6,1-1.9,1.9,1.5,2,4.3,1.4,5.5.3,4.6-1,1.9-1.9-1.5-2.1-4.3-1.4-5.5-.3Z"/>
          <path class="st63" d="M114,502.5l-4.5,1-1.8,1.8,1.5,2,4.2,1.4,5.4.3,4.5-1,1.9-1.8-1.5-2-4.2-1.4-5.4-.3Z"/>
          <path class="st77" d="M114.1,502.6l-4.4,1-1.8,1.8,1.4,2,4.2,1.4,5.3.2,4.4-1,1.8-1.8-1.5-2-4.2-1.4-5.3-.2Z"/>
          <path class="st79" d="M114.2,502.6l-4.3.9-1.8,1.8,1.4,1.9,4.1,1.4,5.2.2,4.3-.9,1.8-1.8-1.4-1.9-4.1-1.4-5.2-.2Z"/>
          <path class="st65" d="M114.3,502.7l-4.2.9-1.8,1.7,1.4,1.9,4,1.3,5.1.2,4.2-.9,1.8-1.7-1.4-1.9-4-1.3-5.1-.2Z"/>
          <path class="st75" d="M114.4,502.7l-4.1.9-1.7,1.7,1.3,1.9,3.9,1.3,5,.2,4.1-.9,1.7-1.7-1.4-1.8-3.9-1.3-5-.2Z"/>
          <path class="st76" d="M114.6,502.8l-4,.9-1.7,1.7,1.3,1.8,3.8,1.3,4.9.2,4-.9,1.7-1.7-1.3-1.8-3.8-1.3-4.9-.2Z"/>
          <path class="st74" d="M114.7,502.8l-3.9.9-1.6,1.6,1.3,1.8,3.8,1.2,4.8.2,4-.9,1.6-1.6-1.3-1.8-3.7-1.2-4.8-.2Z"/>
          <path class="st78" d="M114.8,502.9l-3.9.9-1.6,1.6,1.3,1.7,3.7,1.2,4.7.2,3.9-.8,1.6-1.6-1.3-1.7-3.7-1.2-4.7-.2Z"/>
          <path class="st69" d="M114.9,503l-3.8.8-1.6,1.6,1.2,1.7,3.6,1.2,4.6.2,3.8-.8,1.6-1.6-1.2-1.7-3.6-1.2-4.5-.2Z"/>
          <path class="st70" d="M115,503l-3.7.8-1.5,1.5,1.2,1.7,3.5,1.2,4.4.2,3.7-.8,1.5-1.5-1.2-1.6-3.5-1.2-4.4-.2Z"/>
          <path class="st72" d="M115.1,503.1l-3.6.8-1.5,1.5,1.2,1.6,3.4,1.1,4.3.2,3.6-.8,1.5-1.5-1.2-1.6-3.4-1.1-4.3-.2Z"/>
          <path class="st71" d="M115.2,503.1l-3.5.8-1.5,1.4,1.2,1.6,3.3,1.1,4.2.2,3.5-.8,1.5-1.4-1.2-1.6-3.3-1.1-4.2-.2Z"/>
          <path class="st73" d="M115.4,503.2l-3.4.8-1.4,1.4,1.1,1.5,3.2,1.1,4.1.2,3.4-.7,1.4-1.4-1.1-1.5-3.2-1.1-4.1-.2Z"/>
          <path class="st80" d="M115.5,503.3l-3.3.7-1.4,1.4,1.1,1.5,3.2,1.1,4,.2,3.4-.7,1.4-1.4-1.1-1.5-3.2-1-4-.2Z"/>
          <path class="st60" d="M115.6,503.3l-3.3.7-1.3,1.3,1.1,1.5,3.1,1,3.9.2,3.3-.7,1.4-1.3-1.1-1.5-3.1-1-3.9-.2Z"/>
          <rect class="st0" x="110.6" y="492" width="16.1" height="16.1"/>
        </g>
      </g>
      <g class="st95">
        <g>
          <path class="st61" d="M54.8,469.2l-8.1,1.8-3.4,3.4,2.7,3.6,7.7,2.5,9.7.5,8.1-1.8,3.3-3.3-2.7-3.6-7.7-2.5-9.7-.5Z"/>
          <path class="st67" d="M55,469.3l-7.9,1.8-3.3,3.3,2.6,3.6,7.5,2.5,9.6.5,8-1.8,3.3-3.3-2.6-3.6-7.5-2.5-9.6-.5Z"/>
          <path class="st66" d="M55.2,469.4l-7.8,1.7-3.2,3.2,2.6,3.5,7.4,2.4,9.4.5,7.8-1.7,3.2-3.2-2.6-3.5-7.4-2.5-9.4-.4Z"/>
          <path class="st64" d="M55.4,469.5l-7.7,1.7-3.2,3.2,2.5,3.4,7.3,2.4,9.2.4,7.7-1.7,3.2-3.2-2.5-3.4-7.3-2.4-9.2-.4Z"/>
          <path class="st68" d="M55.6,469.6l-7.5,1.7-3.1,3.1,2.5,3.4,7.1,2.4,9.1.4,7.5-1.6,3.1-3.1-2.5-3.4-7.1-2.4-9.1-.4Z"/>
          <path class="st62" d="M55.8,469.7l-7.4,1.6-3.1,3,2.4,3.3,7,2.3,8.9.4,7.4-1.6,3.1-3.1-2.4-3.3-7-2.3-8.9-.4Z"/>
          <path class="st63" d="M55.9,469.8l-7.2,1.6-3,3,2.4,3.2,6.9,2.3,8.7.4,7.2-1.6,3-3-2.4-3.2-6.9-2.3-8.7-.4Z"/>
          <path class="st77" d="M56.1,469.9l-7.1,1.6-3,2.9,2.3,3.2,6.7,2.2,8.6.4,7.1-1.6,2.9-2.9-2.3-3.2-6.7-2.2-8.5-.4Z"/>
          <path class="st79" d="M56.3,470l-7,1.5-2.9,2.9,2.3,3.1,6.6,2.2,8.4.4,7-1.5,2.9-2.9-2.3-3.1-6.6-2.2-8.4-.4Z"/>
          <path class="st65" d="M56.5,470.1l-6.8,1.5-2.8,2.8,2.2,3.1,6.5,2.1,8.2.4,6.8-1.5,2.8-2.8-2.2-3.1-6.5-2.1-8.2-.4Z"/>
          <path class="st75" d="M56.7,470.2l-6.7,1.5-2.8,2.8,2.2,3,6.3,2.1,8,.4,6.7-1.5,2.8-2.8-2.2-3-6.3-2.1-8.1-.4Z"/>
          <path class="st76" d="M56.9,470.3l-6.5,1.4-2.7,2.7,2.2,2.9,6.2,2.1,7.9.4,6.5-1.4,2.7-2.7-2.2-2.9-6.2-2.1-7.9-.4Z"/>
          <path class="st74" d="M57.1,470.4l-6.4,1.4-2.7,2.6,2.1,2.9,6.1,2,7.7.4,6.4-1.4,2.6-2.6-2.1-2.9-6.1-2-7.7-.4Z"/>
          <path class="st78" d="M57.2,470.5l-6.3,1.4-2.6,2.6,2.1,2.8,5.9,2,7.6.4,6.3-1.4,2.6-2.6-2.1-2.8-5.9-2-7.5-.4Z"/>
          <path class="st69" d="M57.4,470.6l-6.1,1.3-2.5,2.5,2,2.8,5.8,1.9,7.4.4,6.1-1.3,2.5-2.5-2-2.7-5.8-1.9-7.4-.4Z"/>
          <path class="st70" d="M57.6,470.7l-6,1.3-2.5,2.5,2,2.7,5.7,1.9,7.2.3,6-1.3,2.5-2.5-2-2.7-5.7-1.9-7.2-.4Z"/>
          <path class="st72" d="M57.8,470.8l-5.8,1.3-2.4,2.4,1.9,2.6,5.5,1.8,7,.3,5.8-1.3,2.4-2.4-1.9-2.6-5.5-1.8-7-.4Z"/>
          <path class="st71" d="M58,470.9l-5.7,1.2-2.4,2.4,1.9,2.5,5.4,1.8,6.9.3,5.7-1.2,2.4-2.4-1.9-2.5-5.4-1.8-6.9-.3Z"/>
          <path class="st73" d="M58.2,471l-5.6,1.2-2.3,2.3,1.8,2.5,5.3,1.7,6.7.3,5.6-1.2,2.3-2.3-1.8-2.5-5.3-1.7-6.7-.3Z"/>
          <path class="st80" d="M58.4,471.1l-5.4,1.2-2.2,2.2,1.8,2.4,5.1,1.7,6.5.3,5.4-1.2,2.2-2.2-1.8-2.4-5.1-1.7-6.5-.3Z"/>
          <path class="st60" d="M58.6,471.2l-5.3,1.1-2.2,2.2,1.7,2.4,5,1.7,6.4.3,5.3-1.1,2.2-2.2-1.8-2.4-5-1.7-6.4-.3Z"/>
          <rect class="st0" x="50.5" y="453.1" width="25.9" height="25.9"/>
        </g>
      </g>
      <g class="st96">
        <g>
          <path class="st61" d="M400.1,520c-16.3,17-81.6,29.3-145.9,27.5-64.3-1.8-103.2-17-87-33.9,16.3-17,81.6-29.3,145.9-27.5,64.3,1.8,103.3,17,87,33.9h0Z"/>
          <path class="st67" d="M399.4,520c-15.9,16.7-79.7,28.8-142.6,26.9-62.9-1.8-100.9-16.8-85.1-33.5,15.9-16.7,79.7-28.8,142.6-26.9,62.9,1.8,100.9,16.8,85.1,33.5Z"/>
          <path class="st66" d="M398.6,520c-15.5,16.4-77.8,28.2-139.3,26.4-61.4-1.9-98.6-16.7-83.1-33.1,15.5-16.4,77.8-28.2,139.3-26.4,61.4,1.9,98.6,16.7,83.1,33.1h0Z"/>
          <path class="st64" d="M397.8,519.9c-15.1,16.2-76,27.7-135.9,25.8-60-1.9-96.3-16.6-81.2-32.7,15.1-16.2,76-27.7,135.9-25.8,60,1.9,96.3,16.6,81.2,32.7Z"/>
          <path class="st68" d="M397.1,519.9c-14.7,15.9-74.1,27.2-132.6,25.2-58.5-2-94-16.4-79.3-32.4,14.7-15.9,74.1-27.2,132.6-25.2,58.5,2,94,16.5,79.3,32.4Z"/>
          <path class="st62" d="M396.3,519.9c-14.3,15.6-72.2,26.7-129.3,24.7-57.1-2-91.7-16.3-77.4-32,14.3-15.6,72.2-26.7,129.3-24.7,57.1,2,91.7,16.3,77.4,32Z"/>
          <path class="st63" d="M395.5,519.9c-13.9,15.4-70.4,26.2-126,24.1-55.6-2.1-89.4-16.2-75.5-31.6,13.9-15.4,70.4-26.2,126-24.1,55.6,2.1,89.4,16.2,75.5,31.6Z"/>
          <path class="st77" d="M394.8,519.8c-13.6,15.1-68.5,25.6-122.7,23.5-54.2-2.1-87.1-16.1-73.5-31.2,13.6-15.1,68.5-25.6,122.7-23.5,54.2,2.1,87.1,16.1,73.5,31.2Z"/>
          <path class="st79" d="M394,519.8c-13.2,14.8-66.6,25.1-119.4,23-52.7-2.2-84.8-16-71.6-30.8,13.2-14.8,66.6-25.1,119.4-23,52.7,2.2,84.8,16,71.6,30.8h0Z"/>
          <path class="st65" d="M393.2,519.8c-12.8,14.6-64.7,24.6-116,22.4-51.3-2.2-82.5-15.8-69.7-30.4,12.8-14.6,64.7-24.6,116-22.4,51.3,2.2,82.5,15.8,69.7,30.4Z"/>
          <path class="st75" d="M392.5,519.8c-12.4,14.3-62.9,24.1-112.7,21.8-49.8-2.3-80.2-15.7-67.8-30,12.4-14.3,62.9-24.1,112.7-21.8,49.8,2.3,80.2,15.7,67.8,30Z"/>
          <path class="st76" d="M391.7,519.7c-12,14-61,23.5-109.4,21.2-48.4-2.3-77.9-15.6-65.9-29.6,12-14,61-23.5,109.4-21.2,48.4,2.3,77.9,15.6,65.9,29.6Z"/>
          <path class="st74" d="M390.9,519.7c-11.6,13.8-59.1,23-106.1,20.7-46.9-2.4-75.6-15.4-63.9-29.2,11.6-13.8,59.1-23,106.1-20.7,46.9,2.4,75.6,15.4,63.9,29.2h0Z"/>
          <path class="st78" d="M390.2,519.7c-11.3,13.5-57.3,22.5-102.8,20.1-45.5-2.4-73.3-15.3-62-28.8,11.3-13.5,57.3-22.5,102.8-20.1,45.5,2.4,73.3,15.3,62,28.8h0Z"/>
          <path class="st69" d="M389.4,519.7c-10.9,13.2-55.4,22-99.5,19.5-44.1-2.5-71-15.2-60.1-28.4,10.9-13.2,55.4-22,99.5-19.5,44.1,2.5,71,15.2,60.1,28.4h0Z"/>
          <path class="st70" d="M388.6,519.6c-10.5,13-53.5,21.5-96.1,19-42.6-2.5-68.7-15.1-58.2-28,10.5-13,53.5-21.5,96.1-19,42.6,2.5,68.7,15,58.2,28h0Z"/>
          <path class="st72" d="M387.9,519.6c-10.1,12.7-51.7,21-92.8,18.4-41.2-2.6-66.4-14.9-56.3-27.6,10.1-12.7,51.7-21,92.8-18.4,41.2,2.6,66.4,14.9,56.3,27.6Z"/>
          <path class="st71" d="M387.1,519.6c-9.7,12.5-49.8,20.4-89.5,17.8-39.7-2.6-64.1-14.8-54.3-27.3,9.7-12.5,49.8-20.4,89.5-17.8,39.7,2.6,64.1,14.8,54.3,27.3Z"/>
          <path class="st73" d="M386.4,519.5c-9.3,12.2-47.9,19.9-86.2,17.3-38.3-2.7-61.8-14.7-52.4-26.9,9.3-12.2,47.9-19.9,86.2-17.3,38.3,2.7,61.8,14.7,52.4,26.9Z"/>
          <path class="st80" d="M385.6,519.5c-8.9,11.9-46,19.4-82.9,16.7-36.8-2.7-59.4-14.6-50.5-26.5,8.9-11.9,46-19.4,82.9-16.7,36.8,2.7,59.4,14.5,50.5,26.5Z"/>
          <path class="st60" d="M384.8,519.5c-8.6,11.7-44.2,18.9-79.6,16.1-35.4-2.7-57.1-14.4-48.6-26.1,8.6-11.7,44.2-18.9,79.6-16.1,35.4,2.7,57.1,14.4,48.6,26.1Z"/>
          <path class="st25" d="M384,519.6c-8.4,11.4-43.4,18.5-78.1,15.8-34.8-2.7-56.1-14.1-47.7-25.5,8.4-11.4,43.4-18.5,78.1-15.8,34.8,2.7,56.1,14.1,47.7,25.5Z"/>
          <path class="st104" d="M383.2,519.6c-8.3,11.2-42.6,18.1-76.7,15.5-34.1-2.6-55.1-13.8-46.8-24.9,8.3-11.2,42.6-18.1,76.7-15.5,34.1,2.6,55.1,13.8,46.8,24.9Z"/>
          <path class="st120" d="M382.4,519.7c-8.1,10.9-41.8,17.7-75.3,15.2-33.5-2.5-54-13.4-45.9-24.4,8.1-10.9,41.8-17.7,75.3-15.2,33.5,2.5,54,13.4,45.9,24.4Z"/>
          <path class="st20" d="M381.6,519.8c-8,10.7-41,17.4-73.9,14.9-32.8-2.5-53-13.1-45-23.8,8-10.7,41-17.4,73.9-14.9,32.8,2.4,53,13.1,45.1,23.8h0Z"/>
          <path class="st35" d="M380.8,519.8c-7.8,10.5-40.2,17-72.4,14.6-32.2-2.4-52-12.8-44.2-23.2,7.8-10.5,40.2-17,72.4-14.6,32.2,2.4,52,12.8,44.2,23.2Z"/>
          <path class="st168" d="M379.9,519.9c-7.7,10.2-39.5,16.6-71,14.3-31.6-2.3-50.9-12.5-43.3-22.7,7.7-10.2,39.4-16.6,71-14.3,31.6,2.3,50.9,12.5,43.3,22.7Z"/>
          <path class="st157" d="M379.1,520c-7.5,10-38.7,16.2-69.6,14-30.9-2.2-49.9-12.1-42.4-22.1,7.5-10,38.7-16.2,69.6-14,30.9,2.2,49.9,12.1,42.4,22.1h0Z"/>
          <path class="st32" d="M378.3,520c-7.4,9.7-37.9,15.9-68.2,13.7-30.3-2.2-48.9-11.8-41.5-21.6,7.4-9.7,37.9-15.9,68.2-13.7,30.3,2.2,48.9,11.8,41.5,21.6h0Z"/>
          <path class="st112" d="M377.5,520.1c-7.2,9.5-37.1,15.5-66.8,13.4-29.7-2.1-47.8-11.5-40.6-21,7.2-9.5,37.1-15.5,66.8-13.4,29.7,2.1,47.8,11.5,40.6,21Z"/>
          <path class="st2" d="M376.7,520.2c-7.1,9.3-36.3,15.1-65.3,13.1-29-2-46.8-11.2-39.7-20.4,7.1-9.2,36.3-15.1,65.3-13.1,29,2,46.8,11.2,39.7,20.4Z"/>
          <path class="st141" d="M375.9,520.2c-6.9,9-35.5,14.7-63.9,12.8-28.4-2-45.8-10.8-38.9-19.9,6.9-9,35.5-14.7,63.9-12.8,28.4,2,45.8,10.8,38.9,19.8h0Z"/>
          <path class="st38" d="M375.1,520.3c-6.8,8.8-34.7,14.4-62.5,12.5-27.7-1.9-44.7-10.5-38-19.3,6.8-8.8,34.7-14.4,62.5-12.5,27.7,1.9,44.7,10.5,38,19.3Z"/>
          <path class="st137" d="M374.3,520.4c-6.6,8.5-34,14-61.1,12.2-27.1-1.8-43.7-10.2-37.1-18.7,6.6-8.5,34-14,61.1-12.2,27.1,1.8,43.7,10.2,37.1,18.7Z"/>
          <path class="st34" d="M373.4,520.4c-6.5,8.3-33.2,13.6-59.6,11.9-26.5-1.7-42.7-9.9-36.2-18.2,6.5-8.3,33.2-13.6,59.6-11.9,26.5,1.7,42.7,9.9,36.2,18.2h0Z"/>
          <path class="st121" d="M372.6,520.5c-6.3,8-32.4,13.2-58.2,11.6-25.8-1.7-41.6-9.5-35.3-17.6,6.3-8,32.4-13.2,58.2-11.6,25.8,1.7,41.6,9.5,35.3,17.6Z"/>
          <path class="st111" d="M371.8,520.6c-6.2,7.8-31.6,12.9-56.8,11.3-25.2-1.6-40.6-9.2-34.4-17,6.2-7.8,31.6-12.9,56.8-11.3,25.2,1.6,40.6,9.2,34.4,17Z"/>
          <path class="st117" d="M371,520.6c-6,7.6-30.8,12.5-55.4,11s-39.6-8.9-33.6-16.5c6-7.6,30.8-12.5,55.4-11,24.6,1.5,39.6,8.9,33.5,16.5Z"/>
          <path class="st142" d="M370.2,520.7c-5.9,7.3-30,12.1-53.9,10.7-23.9-1.4-38.5-8.6-32.7-15.9,5.9-7.3,30-12.1,53.9-10.7,23.9,1.4,38.5,8.6,32.7,15.9h0Z"/>
          <path class="st169" d="M369.4,520.8c-5.7,7.1-29.2,11.7-52.5,10.4-23.3-1.4-37.5-8.2-31.8-15.3,5.7-7.1,29.2-11.7,52.5-10.4,23.3,1.4,37.5,8.2,31.8,15.3Z"/>
          <path class="st127" d="M368.6,520.9c-5.6,6.9-28.5,11.4-51.1,10.1-22.6-1.3-36.5-7.9-30.9-14.8,5.6-6.9,28.5-11.4,51.1-10.1,22.6,1.3,36.5,7.9,30.9,14.8h0Z"/>
          <path class="st109" d="M367.8,520.9c-5.4,6.6-27.7,11-49.7,9.8-22-1.2-35.4-7.6-30-14.2,5.4-6.6,27.7-11,49.7-9.8,22,1.2,35.4,7.6,30,14.2Z"/>
          <path class="st52" d="M311.9,538.8l105.5-12.4,9.4-12.7-21.9-101.9-14.2-9.9-105.5,12.4-9.5,12.9,21.8,101.5,14.5,10.1Z"/>
          <path class="st55" d="M311.8,538.5l105.6-12.4,9.4-12.7-21.9-101.7-14.2-9.9-105.6,12.4-9.5,12.9,21.8,101.3,14.5,10.1Z"/>
          <path class="st51" d="M311.8,538.1l105.6-12.4,9.4-12.7-21.9-101.5-14.2-9.9-105.6,12.4-9.5,12.9,21.8,101.1,14.5,10.1Z"/>
          <path class="st57" d="M311.7,537.7l105.6-12.4,9.4-12.7-21.9-101.3-14.2-9.9-105.6,12.4-9.5,12.9,21.8,100.9,14.5,10Z"/>
          <path class="st54" d="M311.6,537.4l105.7-12.4,9.4-12.6-21.8-101.1-14.2-9.9-105.7,12.4-9.5,12.8,21.8,100.7,14.5,10Z"/>
          <path class="st53" d="M311.5,537l105.7-12.4,9.4-12.6-21.8-100.8-14.2-9.8-105.7,12.4-9.5,12.8,21.7,100.5,14.5,10Z"/>
          <path class="st56" d="M311.4,536.6l105.8-12.4,9.4-12.6-21.8-100.6-14.2-9.8-105.8,12.4-9.6,12.8,21.7,100.2,14.5,10Z"/>
          <path class="st58" d="M311.3,536.3l105.8-12.4,9.4-12.6-21.8-100.4-14.2-9.8-105.8,12.4-9.6,12.8,21.7,100,14.5,10Z"/>
          <path class="st50" d="M311.2,535.9l105.8-12.4,9.4-12.5-21.7-100.2-14.2-9.8-105.8,12.4-9.6,12.7,21.6,99.8,14.5,9.9Z"/>
          <path class="st111" d="M311.7,535.5l107.5-12.6,9.6-12.6-21.9-100.2-14.4-9.7-107.5,12.6-9.7,12.8,21.8,99.8,14.7,9.9Z"/>
          <path class="st20" d="M354.6,479.7l-2.6-12,7.6,5.2-4.9,6.8Z"/>
          <path class="st121" d="M357,491.3l-2.5-11.5,7.7,4.6-5.2,6.9Z"/>
          <path class="st25" d="M383.5,495l-11.4,3-3.5-1.6,6.6-5.5,8.4,4.1Z"/>
          <path class="st8" d="M362.2,484.4l12.9,6.4-6.6,5.6-11.5-5.1,5.2-6.9Z"/>
          <path class="st31" d="M359.2,501.4l-2.2-10.1,15,6.7-12.8,3.4Z"/>
          <path class="st137" d="M362.2,484.4l4.7-6.3-7.4-5.1-5,6.8,7.7,4.6Z"/>
          <path class="st20" d="M362.2,484.4l9.1-3.5-4.4-2.8-4.7,6.3Z"/>
          <path class="st45" d="M389.6,493.3l-18.4-12.4-9.1,3.5,21.3,10.6,6.2-1.7Z"/>
          <path class="st132" d="M363.1,518.8l27.9-3.3-29.8-4.8,1.9,8.1Z"/>
          <path class="st168" d="M380.7,495.8l-3.7,4.7-5-2.5,8.7-2.2Z"/>
          <path class="st154" d="M372,498l-2.4,5.9,7.1,1.9.3-5.4-5-2.5Z"/>
          <path class="st23" d="M366.7,502.8l3.6-4.3,1.7-.5-2.4,5.9-2.9-1.1Z"/>
          <path class="st33" d="M362.8,502.2l-.3-1.7,7.8-1.9-3.6,4.3-3.9-.6Z"/>
          <path class="st88" d="M360,504.5l-.7-3.1,3.2-.9.3,1.7-2.8,2.3Z"/>
          <path class="st88" d="M364.2,505.5l-1.4-3.4-2.8,2.3,4.2,1.1Z"/>
          <path class="st159" d="M370.8,506.7l-1.1-2.8-2.9-1.1-3.9-.6,1.4,3.4,6.6,1.2Z"/>
          <path class="st137" d="M413,512.9l-42.2-6.2-1.1-2.8,7.1,1.9,36.3,7.1Z"/>
          <path class="st20" d="M377.3,508.6l2.3,2.2-9.8,1.2-5.6-6.5,6.6,1.2,6.4,1.9Z"/>
          <path class="st143" d="M361.2,510.7l-1.2-6.3,4.3,1.1,5.7,6.8-8.7-1.6Z"/>
          <path class="st45" d="M401.6,514.4l-22.1-3.6-9.7,1.2,21.2,3.5,10.6-1.2Z"/>
          <path class="st145" d="M390.9,509.8l-13.7-1.2-6.4-1.9,20.1,3Z"/>
          <path class="st2" d="M363.1,518.8l4.4-.5-3.5,5.2-.9-4.7Z"/>
          <path class="st112" d="M393.7,520.3l-26.1-2,16-1.9,10.2,3.9Z"/>
          <path class="st168" d="M364.1,523.5h10c0,0-2.3-4.9-2.3-4.9l-4.2-.4-3.5,5.2Z"/>
          <path class="st125" d="M385.8,523.8l-11.8-.3-2.3-4.8,6.4.5,7.7,4.6Z"/>
          <path class="st141" d="M389.8,526.2l-8.6,1-7.1-3.7,11.8.3,3.9,2.4Z"/>
          <path class="st152" d="M364.1,523.5l1.2,5.6,6.2-.7-2.9-5h-4.5Z"/>
          <path class="st60" d="M381.1,527.2l-9.6,1.1-2.9-4.9h5.5s7.1,3.7,7.1,3.7Z"/>
          <path class="st2" d="M354.7,479.7l-2.6-12.1-4.9,6.8,7.6,5.3Z"/>
          <path class="st119" d="M357.2,491.2l-2.5-11.5-5.3,6.1,7.8,5.4Z"/>
          <path class="st6" d="M333.7,500.8l12.1.3,2.6-2.4-8.6-3.7-6.2,5.8Z"/>
          <path class="st154" d="M349.4,485.8l-9.5,9.1,8.6,3.8,8.8-7.5-7.8-5.4Z"/>
          <path class="st139" d="M359.5,501.4l-2.2-10.1-11.4,9.8,13.6.3Z"/>
          <path class="st48" d="M349.4,485.8l-7.2-4.9,4.9-6.6,7.6,5.3-5.3,6.1Z"/>
          <path class="st85" d="M349.4,485.8l-10.1-1.2,3-3.7,7.2,4.9Z"/>
          <path class="st84" d="M327.1,500.6l12.2-16,10.1,1.2-15.7,14.9-6.6-.2Z"/>
          <path class="st130" d="M363.2,518.8l-27.9,3.3,26.3-11.4,1.7,8.1Z"/>
          <path class="st41" d="M308.3,525.2l5-.6,13.9-24-18.8,24.6Z"/>
          <path class="st124" d="M336.6,500.9l-3.9,4-4.3-4.2,8.3.2Z"/>
          <path class="st110" d="M313.2,524.6l15.1-23.9h-1.2c0-.1-13.9,23.9-13.9,23.9Z"/>
          <path class="st126" d="M332.7,504.9l-19.4,19.7,15.1-23.9,4.3,4.2Z"/>
          <path class="st110" d="M336.6,500.9l5.5,3.6,3.7-3.5h-9.2Z"/>
          <path class="st19" d="M323.2,518.3l18.9-13.7-5.5-3.6-17.6,17.8,4.2-.4Z"/>
          <path class="st164" d="M313.2,524.6l10-6.3-4.2.4-5.8,5.9Z"/>
          <path class="st124" d="M313.2,524.6l31.5-15-2.6-5-18.9,13.7-10,6.3Z"/>
          <path class="st138" d="M345.8,501.1l4.8,5.1-5.9,3.4-2.6-5,3.7-3.5Z"/>
          <path class="st59" d="M352.9,504.4l-5.2-3.3h-1.8c0-.1,4.8,5,4.8,5l2.3-1.7Z"/>
          <path class="st88" d="M356.4,502.9l-.5-1.7h-8.3c0,0,5.2,3.2,5.2,3.2l3.5-1.5Z"/>
          <path class="st110" d="M360,504.4l-.7-3.1h-3.4c0-.1.5,1.5.5,1.5l3.7,1.5Z"/>
          <path class="st20" d="M356.5,506.4v-3.5c-.1,0,3.5,1.5,3.5,1.5l-3.5,2Z"/>
          <path class="st4" d="M350.7,509.1v-2.9c0,0,2.2-1.7,2.2-1.7l3.5-1.5v3.5c.1,0-5.7,2.7-5.7,2.7Z"/>
          <path class="st157" d="M313.2,524.6l37.5-15.5v-2.9c0,0-6,3.4-6,3.4l-31.5,15Z"/>
          <path class="st20" d="M345.4,512.4l-1.3,2.6,9.8-1.2,2.5-7.4-5.8,2.7-5.3,3.3Z"/>
          <path class="st111" d="M361.5,510.7l-1.4-6.3-3.6,2-2.7,7.7,7.7-3.4Z"/>
          <path class="st82" d="M324.7,523.4l19.4-8.4,9.8-1.1-18.6,8.2-10.5,1.3Z"/>
          <path class="st88" d="M332.9,516.6l12.5-4.2,5.3-3.3-17.8,7.5Z"/>
          <path class="st121" d="M313.2,524.6l11.4-1.3,8.2-6.7-19.7,8Z"/>
          <path class="st59" d="M344.1,515l1.3-2.6-12.5,4.2-8.2,6.7,19.5-8.3Z"/>
          <path class="st157" d="M363.2,518.8l-4.4.5,5.5,4.2-1.1-4.7Z"/>
          <path class="st4" d="M334.8,527.2l24-7.9-16,1.9-8,6Z"/>
          <path class="st81" d="M330.5,522.7l-19.3,12.5h0s24-13,24-13l-4.8.6Z"/>
          <path class="st153" d="M334.4,527.5l-9.5,2.9,3.2-4.3,7.1-4,7.6-.9-8.4,6.3Z"/>
          <path class="st118" d="M341,531.9l8-9.3-14.3,4.6-5,6.1,11.2-1.4Z"/>
          <path class="st48" d="M364.3,523.5l-9.5,2.2v-5.1c.1,0,4-1.3,4-1.3l5.5,4.2Z"/>
          <path class="st152" d="M343.7,528.8l11.1-3v-5.1c.1,0-5.8,2-5.8,2l-5.3,6.1Z"/>
          <path class="st36" d="M341,531.9l8.7-1,5.1-5.1-11.1,3-2.7,3.2Z"/>
          <path class="st154" d="M364.3,523.5l1.2,5.6-6.2.7.7-5.4,4.3-.9Z"/>
          <path class="st121" d="M321.9,525.8l-10.4,9.4h0s15.3-10.2,15.3-10.2l-5,.7Z"/>
          <path class="st81" d="M315.9,531.1l-5.5-4.2,2.8-2.3,11.4-1.3-8.7,7.8Z"/>
          <path class="st85" d="M349.6,530.9l9.6-1.1.7-5.3-5.2,1.3-5.1,5.1Z"/>
          <path class="st103" d="M349.4,456.1l2.6,11.7,5-6.3-7.6-5.4Z"/>
          <path class="st38" d="M346.8,444.6l2.5,11.5,5.3-6.1-7.8-5.4Z"/>
          <path class="st34" d="M370.4,435l-12.1-.3-2.6,2.4,10.6,1.8,4.2-3.9Z"/>
          <path class="st119" d="M354.6,450l11.4-11.1-10.4-1.8-8.8,7.5,7.8,5.4Z"/>
          <path class="st125" d="M344.6,434.5l2.2,10.1,11.4-9.8-13.6-.3Z"/>
          <path class="st137" d="M354.6,450l7.2,4.9-4.9,6.6-7.6-5.3,5.3-6.1Z"/>
          <path class="st92" d="M354.6,450l10.1,1.2-3,3.7-7.2-4.9Z"/>
          <path class="st30" d="M376.9,435.2l-12.2,16-10.1-1.2,15.7-14.9,6.6.2Z"/>
          <path class="st157" d="M340.9,417l27.9-3.3-26.3,11.4-1.7-8.1Z"/>
          <path class="st31" d="M367.4,434.9l3.9-4,4.3,4.2-8.3-.2Z"/>
          <path class="st154" d="M371.4,430.9l19.5-19.7-15.1,23.9-4.3-4.2Z"/>
          <path class="st34" d="M367.4,434.9l-5.5-3.6-3.7,3.5h9.2Z"/>
          <path class="st82" d="M380.8,417.5l-18.9,13.7,5.5,3.6,17.6-17.8-4.2.4Z"/>
          <path class="st146" d="M390.8,411.2l-31.5,15,2.6,5,18.9-13.7,10-6.3Z"/>
          <path class="st32" d="M358.2,434.8l-4.8-5.1,5.9-3.4,2.6,5-3.7,3.5Z"/>
          <path class="st20" d="M351.1,431.4l5.2,3.2h1.8c0,.1-4.8-5-4.8-5l-2.3,1.7Z"/>
          <path class="st60" d="M347.7,432.9l.5,1.7h8.2c0,0-5.2-3.2-5.2-3.2l-3.5,1.5Z"/>
          <path class="st22" d="M344,431.4l.7,3.1h3.4c0,.1-.5-1.5-.5-1.5l-3.7-1.5Z"/>
          <path class="st118" d="M347.6,429.4v3.5c.1,0-3.5-1.5-3.5-1.5l3.5-2Z"/>
          <path class="st106" d="M353.4,426.8v2.9c0,0-2.2,1.7-2.2,1.7l-3.5,1.5v-3.5c-.1,0,5.7-2.7,5.7-2.7Z"/>
          <path class="st38" d="M390.8,411.2l-37.5,15.5v2.9c0,0,6-3.4,6-3.4l31.5-15Z"/>
          <path class="st60" d="M358.7,423.5l1.3-2.6-9.8,1.2-2.5,7.4,5.8-2.7,5.3-3.3Z"/>
          <path class="st8" d="M342.6,425.1l1.4,6.3,3.6-2,2.7-7.7-7.7,3.4Z"/>
          <path class="st2" d="M379.3,412.4l-19.4,8.5-9.8,1.1,18.6-8.2,10.5-1.3Z"/>
          <path class="st137" d="M371.1,419.3l-12.5,4.2-5.3,3.3,17.8-7.5Z"/>
          <path class="st89" d="M390.8,411.2l-11.5,1.3-8.2,6.7,19.7-8Z"/>
          <path class="st31" d="M359.9,420.9l-1.3,2.6,12.5-4.2,8.2-6.7-19.4,8.3Z"/>
          <path class="st35" d="M340.9,417l4.4-.5-5.5-4.2,1.1,4.7Z"/>
          <path class="st125" d="M369.3,408.6l-24,7.9,16-1.9,8-6Z"/>
          <path class="st157" d="M369.7,408.3l9.5-2.9-3.2,4.3-7.2,4-7.6.9,8.4-6.3Z"/>
          <path class="st36" d="M363.1,403.9l-8,9.3,14.3-4.6,5-6.1-11.2,1.4Z"/>
          <path class="st60" d="M339.8,412.3l9.5-2.2v5.1c0,0-4,1.3-4,1.3l-5.5-4.2Z"/>
          <path class="st81" d="M360.3,407.1l-11.1,3v5.1c0,0,5.8-2,5.8-2l5.3-6.1Z"/>
          <path class="st145" d="M363.1,403.9l-8.7,1-5.2,5.1,11.1-3,2.7-3.1Z"/>
          <path class="st2" d="M339.8,412.3l-1.2-5.6,6.2-.7-.7,5.4-4.3.9Z"/>
          <path class="st125" d="M354.4,404.9l-9.6,1.1-.7,5.3,5.2-1.3,5.2-5.1Z"/>
          <path class="st60" d="M349.5,456.1l2.6,11.7-7.5-4.9,4.9-6.8Z"/>
          <path class="st34" d="M347,444.6l2.6,11.8-7.7-4.9,5.1-6.9Z"/>
          <path class="st31" d="M320.6,440.9l11.4-3.1,3.5,1.6-6.6,5.5-8.4-4.1Z"/>
          <path class="st2" d="M341.9,451.5l-12.9-6.4,6.6-5.6,11.5,5.1-5.1,6.9Z"/>
          <path class="st119" d="M344.8,434.4l2.2,10.1-15-6.7,12.8-3.4Z"/>
          <path class="st165" d="M341.9,451.5l-4.8,6.5,7.5,4.9,5-6.8-7.7-4.6Z"/>
          <path class="st166" d="M341.9,451.5l-9.1,3.5,4.2,3,4.9-6.5Z"/>
          <path class="st84" d="M314.4,442.6l18.4,12.4,9.1-3.5-21.3-10.6-6.2,1.7Z"/>
          <path class="st39" d="M340.9,417l-27.9,3.3,29.8,4.8-1.9-8.1Z"/>
          <path class="st42" d="M286.1,423.5l5-.6,23.4,19.6-28.4-19.1Z"/>
          <path class="st155" d="M323.3,440.1l-5.4-2.9-2.3,5,7.8-2.1Z"/>
          <path class="st6" d="M291,422.9l24.5,19.2-1.1.4-23.4-19.6Z"/>
          <path class="st32" d="M317.9,437.2l-26.9-14.3,24.5,19.2,2.3-5Z"/>
          <path class="st38" d="M323.3,440.1l3.3-4.4,5.4,2.1-8.7,2.3Z"/>
          <path class="st20" d="M309.7,429.4l9.7,3.3,7.3,3-3.4,4.3-17.7-9.5,4.1-1.2Z"/>
          <path class="st35" d="M291,422.9l36.3,7.1-8.2,2.7-28.1-9.8Z"/>
          <path class="st149" d="M341.3,433.7l.3,1.7-5.7-.4,1.5-1.9,3.9.7Z"/>
          <path class="st145" d="M344.1,431.4l.7,3.1-3.2.9-.3-1.7,2.8-2.3Z"/>
          <path class="st130" d="M339.9,430.3l1.4,3.4,2.8-2.3-4.2-1Z"/>
          <path class="st36" d="M333.2,429.1l1.2,2.8,2.9,1.1,3.9.7-1.4-3.4-6.6-1.2Z"/>
          <path class="st25" d="M291,422.9l42.2,6.2,1.2,2.8-7.1-1.9-36.3-7.1Z"/>
          <path class="st165" d="M326.8,427.2l-2.3-2.2,9.8-1.2,5.6,6.5-6.6-1.2-6.4-1.9Z"/>
          <path class="st36" d="M342.8,425.1l1.4,6.3-4.3-1-5.8-6.7,8.7,1.5Z"/>
          <path class="st20" d="M302.1,421.7l22.3,3.4,9.7-1.2-21.2-3.5-10.9,1.4Z"/>
          <path class="st60" d="M313.1,426.1l13.7,1.1,6.4,1.9-20.1-3Z"/>
          <path class="st144" d="M291,422.9l11.4-1.3,10.7,4.5-22.1-3.1Z"/>
          <path class="st20" d="M324.5,425l2.3,2.2-13.7-1.1-10.7-4.5,22,3.4Z"/>
          <path class="st168" d="M340.9,417l-4.4.5,3.5-5.2.9,4.7Z"/>
          <path class="st106" d="M310.4,415.5l26.1,2-16,1.9-10.2-3.9Z"/>
          <path class="st114" d="M309.9,415.3l-10.3-.6,4.9,3.4,8.5,2.2,7.6-.9-10.7-4.1Z"/>
          <path class="st82" d="M314.3,409.7l11.6,7-15.5-1.1-7.3-4.6,11.2-1.2Z"/>
          <path class="st168" d="M340.1,412.3h-10.1c0,0,2.3,4.9,2.3,4.9l4.3.4,3.5-5.2Z"/>
          <path class="st116" d="M318.2,412l11.8.3,2.3,4.8-6.4-.5-7.7-4.6Z"/>
          <path class="st123" d="M314.3,409.7l8.6-1,7.1,3.7-11.8-.3-3.9-2.4Z"/>
          <path class="st35" d="M340,412.3l-1.2-5.6-6.2.7,2.9,5h4.5Z"/>
          <path class="st138" d="M290.8,416.2l-3.5,5.2,3.7,1.5,11.4-1.3-11.6-5.4Z"/>
          <path class="st155" d="M322.9,408.6l9.6-1.1,2.9,4.9h-5.5s-7.1-3.8-7.1-3.8Z"/>
          <path class="st42" d="M364.7,466.4l-12.7,1.4,4.9-6.3,7.8,5Z"/>
          <path class="st34" d="M377.2,465.1l-12.4,1.3,4.5-6.5,7.9,5.2Z"/>
          <path class="st125" d="M369.2,459.8l6.1-11.4,6.6,6.4-4.7,10.2-7.9-5.2Z"/>
          <path class="st166" d="M369.2,459.8l-7.3-5-5,6.6,7.8,5,4.5-6.6Z"/>
          <path class="st59" d="M369.3,459.8l-4.5-8.6-2.9,3.6,7.4,5Z"/>
          <path class="st146" d="M376.9,435.2l-12.2,16,4.5,8.6,10-18.8-2.3-5.8Z"/>
          <path class="st131" d="M308.4,420.9l-23.6-7.7h0s17.7,8.4,17.7,8.4l6-.7Z"/>
          <path class="st131" d="M299.6,414.7l10.8.8-7.3-4.6-18.2,2.1h-.1c0,.1,19.7,5.1,19.7,5.1l-4.9-3.4Z"/>
          <path class="st156" d="M313,420.3l-28.3-7h0s23.5,7.6,23.5,7.6l4.8-.6Z"/>
          <path class="st137" d="M364.8,466.4l-12.6,1.5,7.3,5.1,5.3-6.6Z"/>
          <path class="st125" d="M377.1,464.9l-12.4,1.5,7.1,5.4,5.3-6.8Z"/>
          <path class="st132" d="M371.8,471.7l10.6,9.4,3.5-7.6-8.8-8.6-5.3,6.8Z"/>
          <path class="st30" d="M371.8,471.7l-4.8,6.2-7.6-5,5.3-6.6,7.1,5.4Z"/>
          <path class="st161" d="M371.8,471.7l-.6,9.2-4.2-3,4.8-6.2Z"/>
          <path class="st84" d="M389.6,493.3l-18.4-12.4.6-9.2,17.5,15.6.3,6Z"/>
          <path class="st106" d="M339.1,469.3l13-1.5-7.7-5-5.3,6.6Z"/>
          <path class="st132" d="M326.9,471l12.4-1.4-7.1-5.4-5.3,6.8Z"/>
          <path class="st32" d="M314.7,448.6l.6,11.1,2.8,2.6,3.4-7.6-6.8-6.1Z"/>
          <path class="st2" d="M332.2,464.2l-10.6-9.4-3.5,7.6,8.8,8.6,5.3-6.8Z"/>
          <path class="st143" d="M316,472.3l10.9-1.3-11.6-11.2.7,12.5Z"/>
          <path class="st110" d="M332.2,464.2l4.8-6.2,3.8,2.5,3.7,2.5-5.2,6.5-7.1-5.2Z"/>
          <path class="st131" d="M332.2,464.2l.6-9.2,4.2,3-4.8,6.2Z"/>
          <path class="st103" d="M314.4,442.6l18.4,12.4-.6,9.2-17.5-15.6-.3-6Z"/>
          <path class="st87" d="M297.2,474.4l-5.7-25.9,14.4,25-8.8.9Z"/>
          <path class="st164" d="M286.1,423.4l1,4.6,27.3,14.6-28.3-19.2Z"/>
          <path class="st165" d="M314.8,451.3l-4.6-3.9,4.3-3.7.4,7.6Z"/>
          <path class="st115" d="M287.1,428l27.3,15.7v-1.1s-27.3-14.6-27.3-14.6Z"/>
          <path class="st115" d="M310.1,447.4l-23-19.4,27.3,15.7-4.3,3.7Z"/>
          <path class="st106" d="M314.8,451.3l-3.6,4.8,4.1,3.7-.5-8.5Z"/>
          <path class="st122" d="M294.8,437.7l16.4,18.4,3.6-4.8-20.7-17.5.8,3.9Z"/>
          <path class="st33" d="M287.1,428l7.7,9.7-.8-3.9-6.9-5.8Z"/>
          <path class="st82" d="M287.1,428l18.8,30.1,5.3-2-16.4-18.4-7.7-9.7Z"/>
          <path class="st155" d="M315.3,459.8l-5.2,4-4.2-5.7,5.3-2,4.1,3.7Z"/>
          <path class="st38" d="M312.2,466l3.2-4.6v-1.7s-5.2,4-5.2,4l2.1,2.2Z"/>
          <path class="st142" d="M314.1,469.3l1.8-.3-.6-7.6-3.2,4.6,1.9,3.3Z"/>
          <path class="st143" d="M312.7,472.6l3.3-.4v-3.2c-.1,0-1.9.3-1.9.3l-1.4,3.3Z"/>
          <path class="st34" d="M310.3,469.2h3.8c0,.1-1.4,3.4-1.4,3.4l-2.4-3.4Z"/>
          <path class="st125" d="M306.9,463.6h3.2c0,.1,2.1,2.4,2.1,2.4l1.9,3.3h-3.8c0-.1-3.3-5.7-3.3-5.7Z"/>
          <path class="st31" d="M287.1,428l19.8,35.6h3.2c0,.1-4.2-5.5-4.2-5.5l-18.8-30.1Z"/>
          <path class="st141" d="M303,458.5l-3-1.4,2,9.1,8.3,2.9-3.3-5.5-4-5.1Z"/>
          <path class="st2" d="M305.9,473.4l6.8-.8-2.4-3.5-8.6-3,4.3,7.3Z"/>
          <path class="st82" d="M289.3,438.7l10.7,18.5,1.9,9.1-10.3-17.8-2.2-9.8Z"/>
          <path class="st152" d="M297.4,446.7l5.5,11.8,4,5.1-9.5-16.9Z"/>
          <path class="st38" d="M287.1,428l2.3,10.6,7.9,8.1-10.3-18.7Z"/>
          <path class="st164" d="M300,457.1l3,1.4-5.5-11.8-7.9-8.1,10.5,18.5Z"/>
          <path class="st20" d="M297.2,474.4l-.9-4.1-4.1,4.8,5-.7Z"/>
          <path class="st112" d="M285.9,447.6l10.4,22.6-3.2-14.8-7.2-7.8Z"/>
          <path class="st20" d="M285.5,447.3l-3.9-9,5,3.3,4.9,6.9,1.5,7-7.5-8.2Z"/>
          <path class="st82" d="M281.2,453l10.7,8.1-6.1-13.5-7-5,2.4,10.4Z"/>
          <path class="st6" d="M292.1,475.1l-3.1-8.9,5.6.5,1.7,3.7-4.1,4.8Z"/>
          <path class="st157" d="M284.9,455.7l4.1,10.4,5.5.5-2.6-5.5-7.1-5.4Z"/>
          <path class="st168" d="M281.2,453l1.8,8,6,5.1-4.1-10.4-3.6-2.7Z"/>
          <path class="st141" d="M292.1,475.1l-6,.7-1.3-5.8,6,1,1.3,4Z"/>
          <path class="st84" d="M285.9,447.6l-4.3-9.4,5,3.3-11.3-16h-.1c0,.1,3.7,17,3.7,17l7,5Z"/>
          <path class="st141" d="M280.3,430l4.1-4.8,2.7,2.8,2.3,10.6-9.2-8.6Z"/>
          <path class="st48" d="M283,461l1.9,9,5.9,1-1.8-4.9-6-5.1Z"/>
          <path class="st125" d="M339.3,469.4l12.6-1.5-4.8,6.5-7.8-5Z"/>
          <path class="st137" d="M326.9,470.8l12.4-1.5-4.5,6.7-7.9-5.2Z"/>
          <path class="st20" d="M324.8,494.8l-4.2-10.7,1.5-3.1,6.5,6.4-3.9,7.4Z"/>
          <path class="st132" d="M334.8,476l-6.1,11.4-6.6-6.4,4.7-10.2,7.9,5.2Z"/>
          <path class="st119" d="M316,472l10.9-1.3-6.2,13.3-4.7-12Z"/>
          <path class="st36" d="M334.8,476l7.3,5.1,5-6.8-7.8-5.1-4.5,6.7Z"/>
          <path class="st87" d="M334.8,476l4.5,8.6,3-3.5-7.5-5.1Z"/>
          <path class="st42" d="M327.1,500.6l12.2-16-4.5-8.6-10,18.8,2.3,5.8Z"/>
          <path class="st32" d="M297.2,474.3l5.7,25.9,3.1-27-8.7,1.1Z"/>
          <path class="st39" d="M308.4,525.3l-1-4.6,19.7-20.1-18.7,24.7Z"/>
          <path class="st152" d="M323.7,492.2l-2.7,4.8,5.6,2.5-2.9-7.3Z"/>
          <path class="st39" d="M307.4,520.7l19.2-21.1.5,1.1-19.7,20.1Z"/>
          <path class="st86" d="M321,497l-13.6,23.7,19.2-21.1-5.6-2.5Z"/>
          <path class="st81" d="M323.7,492.2l-5.4-3.7,2.3-4.4,3.1,8.2Z"/>
          <path class="st118" d="M310.6,509.7l7.7-21.2,5.4,3.7-12.2,21.3-.9-3.8Z"/>
          <path class="st30" d="M307.4,520.7l3.2-10.9.9,3.8-4.1,7.1Z"/>
          <path class="st118" d="M307.4,520.7l5-32.9,5.9.7-7.7,21.2-3.2,10.9Z"/>
          <path class="st112" d="M320.6,484.1l-6.7-2.6-1.6,6.4,5.9.7,2.3-4.4Z"/>
          <path class="st111" d="M315,478.8l4.9,3.6.7,1.6-6.7-2.6,1-2.6Z"/>
          <path class="st125" d="M315.4,475.3h1.8c0-.1,2.7,7.2,2.7,7.2l-4.9-3.6.4-3.6Z"/>
          <path class="st125" d="M312.7,472.5l3.3-.4,1.2,3h-1.8c0,.1-2.7-2.6-2.7-2.6Z"/>
          <path class="st137" d="M311.8,476.3l3.6-1-2.7-2.8-.8,3.8Z"/>
          <path class="st142" d="M311,482.3l2.9-.9,1-2.6.4-3.6-3.6,1-.8,6Z"/>
          <path class="st20" d="M307.4,520.7l3.6-38.4,2.9-.9-1.6,6.4-5,32.9Z"/>
          <path class="st34" d="M309.4,488.1l-2.3,2-2-9.1,6.7-4.7-.8,6-1.6,5.8Z"/>
          <path class="st34" d="M305.9,473.2l6.8-.8-.8,3.9-6.9,4.9.9-7.9Z"/>
          <path class="st24" d="M304.9,510.1l2.3-20-2.1-9-2.3,19.2,2,9.8Z"/>
          <path class="st4" d="M309.2,500.6l.2-12.5,1.6-5.8-1.8,18.2Z"/>
          <path class="st4" d="M307.4,520.7l-2.3-10.6,4.1-9.5-1.8,20.1Z"/>
          <path class="st32" d="M307.2,490.1l2.3-2-.2,12.5-4.1,9.5,2.1-20Z"/>
          <path class="st152" d="M297.2,474.3l.9,4.1-6-3.6,5.1-.5Z"/>
          <path class="st32" d="M297.8,502.3l.2-23.9,3.2,14.8-3.5,9.1Z"/>
          <path class="st42" d="M297.6,502.8v9.4c.1,0,3.4-4.3,3.4-4.3l1.7-7.7-1.5-7-3.6,9.5Z"/>
          <path class="st130" d="M291.1,498.3l6.7-10.1v14.2s-4.6,6.4-4.6,6.4l-2.2-10.4Z"/>
          <path class="st121" d="M292.1,474.8l.8,9.2,5.1-1.7v-3.9c0,0-5.9-3.6-5.9-3.6Z"/>
          <path class="st34" d="M293.4,494.9l-.5-10.8,5.1-1.7v5.8c-.1,0-4.6,6.7-4.6,6.7Z"/>
          <path class="st30" d="M291.1,498.3l-1.8-8,3.5-6.2.5,10.8-2.3,3.4Z"/>
          <path class="st104" d="M292.1,474.8l-6,.7,1.2,5.8,5.2-2.3-.5-4.2Z"/>
          <path class="st115" d="M300,520.3l6,3.6,1.4-3.3-2.3-10.6-5.1,10.3Z"/>
          <path class="st125" d="M289.4,490.3l-1.9-9,5.1-2.3.3,5-3.5,6.2Z"/>
          <path class="st137" d="M389.7,489l-.3-1.8-6.8-6.1-10.7-9.4v2.2l17.9,15.2Z"/>
          <path class="st25" d="M370.4,435l6.6.2-3.5,5-7.3-1.3,4.2-3.9Z"/>
          <path class="st82" d="M331.6,454.2l-3.5,6.4,4.1,3.6.6-9.2-1.2-.8Z"/>
          <path class="st82" d="M314.7,448.6l-.3-6,17.2,11.6-12.6-1.6-4.4-4Z"/>
          <path class="st38" d="M323.4,440.2l5.3,1.9,6.8-2.6-3.5-1.6-8.6,2.3Z"/>
          <path class="st152" d="M344.7,434.4l.6,2.7h10.3l2.6-2.4-10.1-.2h-3.4Z"/>
          <path class="st103" d="M366.6,463.6l-7.5-5-2.2,2.8,7.8,4.9,1.9-2.7Z"/>
          <path class="st30" d="M323.8,476.9l-5.3,1.2,2.1,5.9,3.2-7.1Z"/>
          <path class="st144" d="M344.4,496.9l2.4-8.4-6.9,6.5,4.5,1.9Z"/>
          <path class="st164" d="M354.7,479.7l7.4,4.6,4.9-6.5-12.3,1.8Z"/>
          <path class="st45" d="M351.6,498.3l-3.2.4,8.8-7.4.5,2.3-6.1,4.7Z"/>
          <path class="st123" d="M340.9,460.5l-4.8,6.5-3.8-2.8,4.8-6.2,3.8,2.5Z"/>
          <path class="st155" d="M362.6,442.2l-11.2-1.5,4.2-3.5,10.6,1.8-3.6,3.3Z"/>
          <path class="st113" d="M368.3,437.3l-2.1,1.6,7.3,1.3-5.2-2.9Z"/>
          <path class="st144" d="M375.5,448.1l.9,6.5-7.1,5.2,6.3-11.7Z"/>
          <path class="st137" d="M376.7,445.8l-3.2-5.6,3.5-5,2.3,5.8-2.6,4.8Z"/>
          <path class="st137" d="M310.9,527.1l11.1-1.3-6,5.3-5.1-4Z"/>
          <path class="st110" d="M338,512.7l-3.4-2.7,7.5-5.4,2.6,5-6.7,3.1Z"/>
          <path class="st60" d="M321.8,490.9l-6.1,4.4-3.1,8.9,9.2-13.3Z"/>
          <path class="st123" d="M353.9,513.9l.8,2.5-12.4,4.9-6.6.8,18.2-8.2Z"/>
          <path class="st143" d="M361.8,510.8l-3.3,4.6-3.8,1-.8-2.5,7.9-3.1Z"/>
          <path class="st141" d="M363.2,518.8l-1.8-8.1-2.9,4.7.8,3.8,3.9-.4Z"/>
          <path class="st7" d="M371.5,528.3l-6,.7-.6-2.9,5.3-.2,1.4,2.4Z"/>
          <path class="st7" d="M381.1,527.2l-9.6,1.1-1.4-2.4h8.9c0,.1,2.1,1.2,2.1,1.2Z"/>
          <path class="st153" d="M391.1,515.6l-7,.8-13.6-1.9-.6-2.4,21.2,3.5Z"/>
          <path class="st110" d="M370.8,506.7l.6,2.5,8.2,1.6,12-1.2-14.3-1.1-6.5-1.8Z"/>
          <path class="st2" d="M302.8,500.3l-5.5,25.5h0s6.4-21.1,6.4-21.1l-1-4.4Z"/>
          <path class="st141" d="M296.3,470.3l4-.7,3,3.9-6.2.7-.9-4Z"/>
          <path class="st169" d="M301.9,466.2h-3s1.5,3.4,1.5,3.4l3,3.9,2.6-.3-4-7Z"/>
          <path class="st44" d="M296.3,470.3l-4.3-3.9,2.6.3,1.7,3.7Z"/>
          <path class="st110" d="M292,466.4l-2.7-7.1,3.9,4.7,1.4,2.6-2.6-.3Z"/>
          <path class="st32" d="M285.9,447.6l-3-2.2,5.1,12.6,4,3-6.1-13.5Z"/>
          <path class="st110" d="M308.4,457.3l4.3,4.5-2.6,2-4.2-5.7,2.5-.8Z"/>
          <path class="st152" d="M302.8,452.9l-8-15.2-7.4-9.2,15.3,24.5Z"/>
          <path class="st152" d="M292.9,428.1l.7,3.4-6.5-3.4-1-4.6,6.8,4.6Z"/>
          <path class="st145" d="M298.9,429.5l-6-1.5-6.5-4.7,4.6-.5,7.9,6.7Z"/>
          <path class="st145" d="M309.7,429.4l-4.1,1.2-5.5-.7-8.6-7,18.3,6.5Z"/>
          <path class="st8" d="M310.8,433.3l-2.8,2.9-7.9-6.4,5.9.7,4.9,2.8Z"/>
          <path class="st137" d="M341.7,435.5l-9.7,2.4-12.8-5.1,16.7,2.2,5.8.5Z"/>
          <path class="st110" d="M337.3,433l-1.5,1.9-16.7-2.2,8.2-2.7,7.1,1.9,2.9,1.1Z"/>
          <path class="st81" d="M309.7,429.4l-17.9-6.2,23.2,4.4-5.3,1.8Z"/>
          <path class="st110" d="M303.1,410.9l-7.5.9,4,3,10.8.8-7.3-4.6Z"/>
          <path class="st38" d="M334.2,423.8l2.3-6.3,4.4-.5,1.8,8.1-8.5-1.3Z"/>
          <path class="st110" d="M340.6,415.2l-18.5-.8,3.8,2.3,10.6.9,4.4-.5-.4-1.8Z"/>
          <path class="st145" d="M354.4,404.9l-9.9,3.3-5.3.6-.5-2.1,15.7-1.8Z"/>
          <path class="st145" d="M322.9,408.6l15.8-1.9.4,2-5.4.6-10.8-.8Z"/>
          <path class="st110" d="M374.2,402.5l-11.2,1.3-2.7,3.2,12.4-2.5,1.5-2Z"/>
          <path class="st142" d="M371.4,430.9l-4.2-3.3-5.2,3.7,5.5,3.6,3.9-4Z"/>
          <path class="st137" d="M286.1,423.4l-6.1-4.1-.9,1.1,7.9,7.6-1-4.6Z"/>
          <path class="st82" d="M290.8,416.2l-6.1-2.9-3.9,5,6.5,3.1,3.5-5.2Z"/>
          <path class="st110" d="M291,422.9l-10.2-4.6-.9,1.1,6.1,4.1,5-.6Z"/>
          <path class="st89" d="M279.2,420.4l-3.2,4.2,4.2-3.3-1-.9Z"/>
          <path class="st38" d="M284.4,425.3l-5.2-4.8-3.8,5,4.9,4.5,4.1-4.8Z"/>
          <path class="st116" d="M334.8,527.2l-9.9,3.2,3.2-4.3-16.6,9.2h.2c0,.1,18.2-2,18.2-2l5-6.1Z"/>
          <path class="st81" d="M310.4,526.9l-4.9,4.4,5.8,3.9,4.6-4.2-5.5-4.2Z"/>
          <path class="st144" d="M308.3,525.2l-4,5.3,1.3.9,7.7-6.7-5,.6Z"/>
          <path class="st31" d="M307.4,520.7l-4.3,9,1.3.9,4-5.3-1-4.6Z"/>
          <path class="st105" d="M300,520.3l-2.7,5.4,5.8,3.9,2.9-5.7-6-3.6Z"/>
          <path class="st130" d="M297.8,512.2v-9.9c0,0-4.5,6.4-4.5,6.4l3.7,16.9h.2c0,.1,3.9-17.6,3.9-17.6l-3.3,4.3Z"/>
          <path class="st20" d="M303.8,504.5l-6.7,21.2h0s7.8-15.6,7.8-15.6l-1.2-5.5Z"/>
          <path class="st110" d="M373.6,413.2l19-12.6h0s-23.7,13.2-23.7,13.2l4.8-.6Z"/>
          <path class="st37" d="M369.3,408.6l9.9-3.2-3.2,4.3,16.6-9.2h-.2c0-.1-18.2,2-18.2,2l-5,6.1Z"/>
          <path class="st37" d="M379.4,412.6l13.4-12h-.1c0,0-19.2,12.6-19.2,12.6l5.9-.7Z"/>
          <path class="st105" d="M324.7,523.3l-13.3,12h0s19.2-12.7,19.2-12.7l-6,.7Z"/>
        </g>
      </g>
      <g class="st100">
        <g>
          <path class="st61" d="M154,461.8l-29.1-13-9.4-12.2,13.9-6.7,31.8,1.3,37.7,8.9,29.1,13,9.4,12.2-13.9,6.7-31.8-1.3-37.7-8.9Z"/>
          <path class="st67" d="M154.9,461.8l-28.6-12.8-9.3-12,13.6-6.6,31.3,1.3,37,8.7,28.6,12.8,9.3,12-13.6,6.6-31.3-1.3-37-8.7Z"/>
          <path class="st66" d="M155.7,461.7l-28.1-12.6-9.1-11.8,13.4-6.5,30.7,1.3,36.3,8.6,28.1,12.6,9.1,11.8-13.4,6.5-30.7-1.3-36.3-8.6Z"/>
          <path class="st64" d="M156.5,461.6l-27.6-12.4-8.9-11.6,13.1-6.4,30.2,1.3,35.7,8.4,27.6,12.4,8.9,11.6-13.1,6.4-30.2-1.3-35.7-8.4Z"/>
          <path class="st68" d="M157.4,461.6l-27.1-12.1-8.8-11.4,12.9-6.2,29.6,1.2,35,8.3,27.1,12.1,8.8,11.4-12.9,6.2-29.6-1.2-35-8.3Z"/>
          <path class="st62" d="M158.2,461.5l-26.6-11.9-8.6-11.1,12.6-6.1,29,1.2,34.4,8.1,26.5,11.9,8.6,11.1-12.6,6.1-29-1.2-34.4-8.1Z"/>
          <path class="st63" d="M159,461.5l-26-11.7-8.4-10.9,12.4-6,28.5,1.2,33.7,8,26,11.7,8.4,10.9-12.4,6-28.5-1.2-33.7-8Z"/>
          <path class="st77" d="M159.9,461.4l-25.5-11.4-8.3-10.7,12.2-5.9,27.9,1.2,33,7.8,25.5,11.4,8.3,10.7-12.2,5.9-27.9-1.2-33-7.8Z"/>
          <path class="st79" d="M160.7,461.3l-25-11.2-8.1-10.5,11.9-5.8,27.4,1.2,32.4,7.6,25,11.2,8.1,10.5-11.9,5.8-27.4-1.2-32.4-7.6Z"/>
          <path class="st65" d="M161.5,461.3l-24.5-11-7.9-10.3,11.7-5.7,26.8,1.1,31.7,7.5,24.5,11,7.9,10.3-11.7,5.7-26.8-1.1-31.7-7.5Z"/>
          <path class="st75" d="M162.4,461.2l-24-10.7-7.8-10.1,11.4-5.5,26.3,1.1,31.1,7.3,24,10.8,7.8,10.1-11.4,5.5-26.3-1.1-31.1-7.3Z"/>
          <path class="st76" d="M163.2,461.2l-23.5-10.5-7.6-9.9,11.2-5.4,25.7,1.1,30.4,7.2,23.5,10.5,7.6,9.9-11.2,5.4-25.7-1.1-30.4-7.2Z"/>
          <path class="st74" d="M164,461.1l-23-10.3-7.4-9.6,10.9-5.3,25.1,1.1,29.7,7,23,10.3,7.4,9.6-10.9,5.3-25.1-1.1-29.7-7Z"/>
          <path class="st78" d="M164.9,461l-22.5-10.1-7.3-9.4,10.7-5.2,24.6,1,29.1,6.9,22.5,10.1,7.3,9.4-10.7,5.2-24.6-1-29.1-6.9Z"/>
          <path class="st69" d="M165.7,461l-22-9.8-7.1-9.2,10.5-5.1,24,1,28.4,6.7,22,9.8,7.1,9.2-10.5,5.1-24-1-28.4-6.7Z"/>
          <path class="st70" d="M166.5,460.9l-21.5-9.6-6.9-9,10.2-4.9,23.5,1,27.8,6.5,21.5,9.6,6.9,9-10.2,5-23.5-1-27.8-6.6Z"/>
          <path class="st72" d="M167.4,460.9l-20.9-9.4-6.8-8.8,10-4.8,22.9,1,27.1,6.4,20.9,9.4,6.8,8.8-10,4.8-22.9-1-27.1-6.4Z"/>
          <path class="st71" d="M168.2,460.8l-20.4-9.2-6.6-8.6,9.7-4.7,22.3.9,26.4,6.2,20.4,9.2,6.6,8.6-9.7,4.7-22.4-.9-26.4-6.2Z"/>
          <path class="st73" d="M169,460.7l-19.9-8.9-6.4-8.4,9.5-4.6,21.8.9,25.8,6.1,19.9,8.9,6.5,8.4-9.5,4.6-21.8-.9-25.8-6.1Z"/>
          <path class="st80" d="M169.9,460.7l-19.4-8.7-6.3-8.1,9.2-4.5,21.2.9,25.1,5.9,19.4,8.7,6.3,8.1-9.2,4.5-21.2-.9-25.1-5.9Z"/>
          <path class="st60" d="M170.7,460.6l-18.9-8.5-6.1-7.9,9-4.4,20.7.9,24.5,5.8,18.9,8.5,6.1,7.9-9,4.4-20.7-.9-24.5-5.8Z"/>
          <path class="st25" d="M171.8,460.6l-18.4-8.3-6-7.7,8.8-4.3,20.2.9,23.8,5.6,18.4,8.3,6,7.7-8.8,4.3-20.1-.9-23.8-5.6Z"/>
          <path class="st104" d="M172.8,460.7l-17.9-8-5.8-7.5,8.5-4.1,19.6.8,23.2,5.5,17.9,8,5.8,7.5-8.5,4.1-19.6-.8-23.2-5.5Z"/>
          <path class="st120" d="M173.9,460.7l-17.5-7.8-5.7-7.3,8.3-4,19.1.8,22.6,5.3,17.5,7.8,5.7,7.3-8.3,4-19.1-.8-22.6-5.3Z"/>
          <path class="st20" d="M175,460.7l-17-7.6-5.5-7.1,8.1-3.9,18.6.8,22,5.2,17,7.6,5.5,7.1-8.1,3.9-18.6-.8-22-5.2Z"/>
          <path class="st35" d="M176.1,460.7l-16.5-7.4-5.3-6.9,7.8-3.8,18,.8,21.4,5,16.5,7.4,5.3,6.9-7.8,3.8-18-.8-21.3-5Z"/>
          <path class="st168" d="M177.1,460.7l-16-7.2-5.2-6.7,7.6-3.7,17.5.7,20.7,4.9,16,7.2,5.2,6.7-7.6,3.7-17.5-.7-20.7-4.9Z"/>
          <path class="st157" d="M178.2,460.7l-15.5-7-5-6.5,7.4-3.6,17,.7,20.1,4.7,15.5,7,5,6.5-7.4,3.6-17-.7-20.1-4.7Z"/>
          <path class="st32" d="M179.3,460.8l-15-6.7-4.9-6.3,7.2-3.5,16.5.7,19.5,4.6,15,6.7,4.9,6.3-7.2,3.5-16.5-.7-19.5-4.6Z"/>
          <path class="st112" d="M180.4,460.8l-14.6-6.5-4.7-6.1,6.9-3.4,15.9.7,18.9,4.4,14.6,6.5,4.7,6.1-6.9,3.4-15.9-.7-18.9-4.4Z"/>
          <path class="st2" d="M181.4,460.8l-14.1-6.3-4.6-5.9,6.7-3.3,15.4.7,18.2,4.3,14.1,6.3,4.6,5.9-6.7,3.3-15.4-.7-18.2-4.3Z"/>
          <path class="st141" d="M182.5,460.8l-13.6-6.1-4.4-5.7,6.5-3.1,14.9.6,17.6,4.2,13.6,6.1,4.4,5.7-6.5,3.1-14.9-.6-17.6-4.2Z"/>
          <path class="st38" d="M183.6,460.8l-13.1-5.9-4.2-5.5,6.2-3,14.4.6,17,4,13.1,5.9,4.3,5.5-6.3,3-14.4-.6-17-4Z"/>
          <path class="st137" d="M184.7,460.9l-12.6-5.7-4.1-5.3,6-2.9,13.8.6,16.4,3.9,12.6,5.7,4.1,5.3-6,2.9-13.8-.6-16.4-3.9Z"/>
          <path class="st34" d="M185.7,460.9l-12.2-5.4-3.9-5.1,5.8-2.8,13.3.6,15.7,3.7,12.2,5.4,3.9,5.1-5.8,2.8-13.3-.6-15.7-3.7Z"/>
          <path class="st121" d="M186.8,460.9l-11.7-5.2-3.8-4.9,5.6-2.7,12.8.5,15.1,3.6,11.7,5.2,3.8,4.9-5.6,2.7-12.8-.5-15.1-3.6Z"/>
          <path class="st111" d="M187.9,460.9l-11.2-5-3.6-4.7,5.3-2.6,12.3.5,14.5,3.4,11.2,5,3.6,4.7-5.3,2.6-12.2-.5-14.5-3.4Z"/>
          <path class="st117" d="M188.9,460.9l-10.7-4.8-3.5-4.5,5.1-2.5,11.7.5,13.9,3.3,10.7,4.8,3.5,4.5-5.1,2.5-11.7-.5-13.9-3.3Z"/>
          <path class="st142" d="M190,461l-10.2-4.6-3.3-4.3,4.9-2.4,11.2.5,13.2,3.1,10.2,4.6,3.3,4.3-4.9,2.4-11.2-.5-13.2-3.1Z"/>
          <path class="st169" d="M191.1,461l-9.8-4.4-3.2-4.1,4.6-2.2,10.7.4,12.6,3,9.8,4.4,3.2,4.1-4.6,2.3-10.7-.5-12.6-3Z"/>
          <path class="st127" d="M192.2,461l-9.3-4.1-3-3.9,4.4-2.1,10.1.4,12,2.8,9.3,4.2,3,3.9-4.4,2.1-10.1-.4-12-2.8Z"/>
          <path class="st109" d="M193.2,461l-8.8-3.9-2.8-3.7,4.2-2,9.6.4,11.4,2.7,8.8,3.9,2.8,3.7-4.2,2-9.6-.4-11.4-2.7Z"/>
          <path class="st52" d="M210.3,395l11.5,2.5,1.9.9,11.4,8,7.9,10.8,1.2,3.9,2.4,8.4v3.4l-.4,8.7-.5,2.7-1.3,3.7-3.8,8-3.2,3.9-4.6,4.3-2,1.3-3.7,1.6-7.6,2.4-3.5.6h-4.3s-5.6-.8-5.6-.8l-2-.4-6.2-2.9-7.4-5.4-5.4-7.8-.9-1.3-1.4-2.8-2-4.8-.7-2.3-1.1-4.8-.7-4.5v-2.7s.7-7.4.7-7.4l.7-3.7,2.1-4.5,2.2-3.9,2.8-3.9,1.4-1.3,1.9-1.8,2.5-1.9,3.6-2.7,2.1-1,5.9-1.6,6-.9Z"/>
          <path class="st55" d="M210.4,395l11.5,2.5,1.9.9,11.4,8,7.9,10.8,1.2,3.9,2.4,8.3v3.4l-.4,8.7-.5,2.7-1.3,3.7-3.8,8-3.2,3.9-4.5,4.3-2,1.3-3.7,1.5-7.5,2.4-3.5.6h-4.2l-5.6-.8-2-.4-6.2-2.9-7.3-5.4-5.4-7.8-.9-1.3-1.4-2.8-2-4.8-.7-2.3-1.1-4.8-.7-4.5v-2.7s.7-7.4.7-7.4l.7-3.6,2.1-4.5,2.2-3.9,2.8-3.9,1.4-1.3,1.9-1.8,2.5-1.9,3.6-2.7,2.1-1,5.9-1.6,6-.9Z"/>
          <path class="st51" d="M210.4,395l11.5,2.5,1.9.9,11.4,8,7.9,10.8,1.2,3.9,2.4,8.3v3.4l-.4,8.6-.5,2.7-1.3,3.7-3.8,8-3.2,3.9-4.5,4.3-2,1.3-3.7,1.5-7.5,2.4-3.5.6h-4.2s-5.6-.8-5.6-.8l-2-.4-6.2-2.9-7.3-5.4-5.4-7.7-.9-1.3-1.4-2.8-2-4.8-.7-2.3-1.1-4.8-.7-4.5v-2.7s.7-7.4.7-7.4l.7-3.6,2.1-4.5,2.2-3.9,2.8-3.9,1.4-1.3,1.9-1.8,2.5-1.9,3.6-2.7,2.1-1,5.8-1.6,6-.9Z"/>
          <path class="st57" d="M210.5,395l11.5,2.5,1.9.9,11.4,8,7.9,10.8,1.2,3.9,2.4,8.3v3.4l-.4,8.6-.5,2.7-1.3,3.7-3.8,7.9-3.2,3.9-4.5,4.3-1.9,1.3-3.7,1.5-7.5,2.4-3.5.6h-4.2l-5.5-.8-2-.4-6.2-2.9-7.3-5.4-5.4-7.7-.9-1.3-1.4-2.8-2-4.8-.7-2.3-1.1-4.8-.7-4.5v-2.7s.7-7.4.7-7.4l.7-3.6,2.1-4.4,2.2-3.9,2.8-3.9,1.4-1.3,1.9-1.8,2.5-1.9,3.6-2.7,2.1-1,5.8-1.6,5.9-.9Z"/>
          <path class="st54" d="M210.6,395l11.4,2.5,1.9.9,11.3,8,7.8,10.8,1.2,3.9,2.4,8.3v3.4l-.4,8.6-.5,2.7-1.3,3.7-3.7,7.9-3.2,3.9-4.5,4.3-1.9,1.3-3.7,1.5-7.5,2.4-3.5.6h-4.2l-5.5-.8-2-.4-6.2-2.9-7.3-5.4-5.4-7.7-.9-1.3-1.4-2.8-2-4.8-.7-2.3-1.1-4.8-.7-4.5v-2.7s.7-7.4.7-7.4l.7-3.6,2.1-4.4,2.2-3.9,2.8-3.9,1.4-1.3,1.9-1.8,2.5-1.9,3.6-2.7,2.1-1,5.8-1.6,5.9-.9Z"/>
          <path class="st53" d="M210.7,395l11.4,2.5,1.8.9,11.3,7.9,7.8,10.7,1.2,3.9,2.4,8.3v3.4l-.4,8.6-.5,2.7-1.3,3.7-3.7,7.9-3.2,3.9-4.5,4.3-1.9,1.3-3.7,1.5-7.5,2.3-3.4.6h-4.2s-5.5-.8-5.5-.8l-2-.4-6.2-2.9-7.3-5.4-5.4-7.7-.9-1.3-1.4-2.8-2-4.8-.7-2.3-1.1-4.8-.7-4.4v-2.7s.7-7.4.7-7.4l.7-3.6,2.1-4.4,2.1-3.9,2.8-3.9,1.4-1.3,1.9-1.8,2.5-1.9,3.6-2.7,2.1-1,5.8-1.6,5.9-.9Z"/>
          <path class="st56" d="M210.7,395l11.4,2.5,1.8.9,11.3,7.9,7.8,10.7,1.2,3.9,2.4,8.3v3.4l-.4,8.6-.5,2.7-1.3,3.7-3.7,7.9-3.2,3.9-4.5,4.3-1.9,1.3-3.7,1.5-7.5,2.3-3.4.6h-4.2l-5.5-.8-2-.4-6.2-2.9-7.3-5.4-5.4-7.7-.9-1.3-1.4-2.8-2-4.8-.7-2.3-1.1-4.8-.7-4.4v-2.7s.7-7.4.7-7.4l.7-3.6,2.1-4.4,2.1-3.9,2.8-3.9,1.4-1.3,1.9-1.8,2.4-1.9,3.6-2.6,2.1-1,5.8-1.6,5.9-.9Z"/>
          <path class="st58" d="M210.8,395l11.4,2.5,1.8.9,11.3,7.9,7.8,10.7,1.2,3.9,2.4,8.2v3.4l-.4,8.5-.5,2.7-1.3,3.7-3.7,7.9-3.2,3.9-4.5,4.2-1.9,1.3-3.7,1.5-7.4,2.3-3.4.6h-4.2l-5.5-.8-2-.4-6.2-2.9-7.2-5.4-5.4-7.7-.9-1.2-1.4-2.8-2-4.8-.7-2.3-1.1-4.8-.7-4.4v-2.6s.7-7.3.7-7.3l.7-3.6,2.1-4.4,2.1-3.9,2.8-3.9,1.4-1.3,1.9-1.8,2.4-1.9,3.6-2.6,2.1-1,5.8-1.6,5.9-.9Z"/>
          <path class="st50" d="M210.9,395l11.3,2.5,1.8.9,11.2,7.9,7.8,10.7,1.2,3.9,2.4,8.2v3.4l-.4,8.5-.5,2.7-1.3,3.7-3.7,7.9-3.2,3.9-4.5,4.2-1.9,1.3-3.7,1.5-7.4,2.3-3.4.6h-4.2l-5.5-.8-1.9-.4-6.1-2.9-7.2-5.4-5.3-7.6-.8-1.2-1.4-2.8-2-4.8-.7-2.3-1.1-4.7-.7-4.4v-2.6s.7-7.3.7-7.3l.7-3.6,2.1-4.4,2.1-3.9,2.8-3.9,1.4-1.3,1.9-1.8,2.4-1.8,3.6-2.6,2.1-1,5.8-1.6,5.9-.9Z"/>
          <path class="st132" d="M236.3,405.6l-.8,2.7,3.5,9.8-8.1-6.9,4.2-3.8-.3-1.2-.8-.8,2.3.2Z"/>
          <path class="st104" d="M244.3,416.3l-7.3-3.8-1.5-4.2.8-2.7,8,10.8Z"/>
          <path class="st132" d="M240.7,414.5l3,5.7.6-3.8-3.6-1.9Z"/>
          <path class="st48" d="M243,422.4l.7-2.3-3-5.7,1.5,6.8.7,1.2Z"/>
          <path class="st157" d="M239,418.1l2.2,10,3-4-1.2-1.7-.7-1.2-1.5-6.8-3.7-2,2,5.6Z"/>
          <path class="st39" d="M244.3,416.3l1.2,3.9-1.3,3.9-1.2-1.7.7-2.3.6-3.8Z"/>
          <path class="st117" d="M241.2,428.1l.6,2.6,3.6.3.6-1.4-4.4-2.1-.4.5Z"/>
          <path class="st152" d="M244.2,424.1l2.3,2.6.3,1.2-.8,1.8-4.4-2.1,2.6-3.5Z"/>
          <path class="st115" d="M245.2,421l1.2,5.6-2.3-2.6,1-3.1Z"/>
          <path class="st166" d="M247,432.4l-.2-4.5-.8,1.8-.6,1.4-1,2.2,2.7-.8Z"/>
          <path class="st130" d="M248,431.9l-1,.5-.2-4.5-.3-1.2-1.3-5.6.3-.8,2.5,8.3v3.4Z"/>
          <path class="st36" d="M243.1,435.4l1.3-2.2,1.1-2.2-3.6-.3,1.3,4.7Z"/>
          <path class="st86" d="M247.3,436.2l-.3-3.8-1.8.5,2.1,3.2Z"/>
          <path class="st128" d="M243.1,435.4l-.7,2.1v2.7s1.8.2,1.8.2l1.1-1-.5-2.5,2.5-.7-2.1-3.2-.9.3-1.3,2.2Z"/>
          <path class="st9" d="M248,431.9l-1,.5.3,3.8.3,4.3.4-8.6Z"/>
          <path class="st22" d="M246.5,444.1l.6-.9.5-2.7-.3-4.3-2.5.7.5,2.4,1.3,4.8Z"/>
          <path class="st31" d="M242.4,440.1v7.7c0,0,.2.4.2.4l1.6-.9,1.8-2.4-1.8-4.6-1.8-.2Z"/>
          <path class="st59" d="M246.5,444.1l-.6.8-1.8-4.6,1.1-1,1.3,4.8Z"/>
          <path class="st167" d="M242.3,447.9l-8.1,2.7,1,1.6,6.3-.9.9-1.3.2-1.7-.3-.4Z"/>
          <path class="st11" d="M242.4,437.5l-6.6,9.5,1.5,2.5,5.1-1.7v-10.4Z"/>
          <path class="st115" d="M232.6,450.8l1.4,1.5,1.2-.2-1-1.6,3.1-.9-1.4-2.5-3.2,3.8Z"/>
          <path class="st1" d="M232.6,450.8l-1.7,2.1,3.1-.6-1.4-1.5Z"/>
          <path class="st47" d="M232.5,454.5l6.2-2.9-3.5.5-1.1.2-3.1.6-.4.7,1.9.9Z"/>
          <path class="st31" d="M236,452.4h-2s-3.1.5-3.1.5l-.4.7,1.5.7,3.9-2Z"/>
          <path class="st93" d="M241.5,451.2l.5,3.6,3.8-7.9-2.8,2.1-1.5,2.2Z"/>
          <path class="st83" d="M247.1,443.2l-1.3,3.7-2.8,2.2,1.2-1.7,1.8-2.4.6-.8.6-.9Z"/>
          <path class="st163" d="M242.6,448.2l-.2,1.7.6-.9,1.2-1.7-1.6.9Z"/>
          <path class="st45" d="M232.5,454.5l5.1,2.2,3.9-5.5-2.7.4-6.2,2.9Z"/>
          <path class="st164" d="M232,464.3v-9.9c0,0-1.4-.7-1.4-.7l-2.3,2.5-4.9,6.6,8.6,1.6Z"/>
          <path class="st115" d="M237.6,456.7l-5.1-2.2-.4-.2v9.9c0,0,1.9-1.3,1.9-1.3l4.6-4.3,3.3-3.9-.5-3.6-3.9,5.5Z"/>
          <path class="st39" d="M235.1,456.4l-2.5,6.7,3.5-6.5-1.1-.3Z"/>
          <path class="st162" d="M232.7,455.9v7.1s2-5.4,2-5.4l-2-1.7Z"/>
          <path class="st120" d="M221.5,463.2l-.8,2.3-3.8-.4-.9.2,4.8.7,7.4-.2,3.8-1.5-8.6-1.6-1.9.6Z"/>
          <path class="st145" d="M218.9,464.2l-6.3-1.6-3.8-6.6,6.8-.6,1,3,.7.3,4.2,4.6-2.6.9Z"/>
          <path class="st144" d="M216.9,465.2l.6-1.4,1.5.4,2.6-.9-.8,2.3-3.8-.4Z"/>
          <path class="st33" d="M212.6,462.6l1.6,3.2,1.8-.4.9-.2.6-1.4-4.8-1.2Z"/>
          <path class="st93" d="M219.8,454.2l-6.2.9-.8.5,2.7-.2,1,3,.7.3-1-3.3,3.5-1.2Z"/>
          <path class="st158" d="M228.2,465.8l-6.8,1.6.8-1.4,6-.2Z"/>
          <path class="st45" d="M220.8,466l-1.1,1.5,1.6-.2.8-1.4h-1.4Z"/>
          <path class="st115" d="M216,465.4l-.2,2.7-1.6-2.3,1.8-.4Z"/>
          <path class="st40" d="M217,468.7l-1.1-.7.2-2.6,4.8.7-1.1,1.5,1.6-.2,6.8-1.6-7.7,2.3-3.6.6Z"/>
          <path class="st111" d="M214.2,465.7l-2.3.4-1.5-2.7,1.8-1.7.5.8,1.6,3.2Z"/>
          <path class="st104" d="M206.9,467.9l4.9-1.8,2.3-.4,1.6,2.3,1.1.7h-4.3l-5.7-.8Z"/>
          <path class="st120" d="M210.4,463.5l-5.5,4,2,.4,4.9-1.8-1.5-2.7Z"/>
          <path class="st10" d="M204.9,467.5l-1-.5-2.8-6.4,1-3.4,6.1-1.9-1.1,1.3,2.7,7.4-4.8,3.5Z"/>
          <path class="st155" d="M199.4,457.1l1.6,3.5,2.8,6.4-4.9-2.6-4.2-5.3,3.7-2.4,1,.3Z"/>
          <path class="st32" d="M191.9,456l.9,1.2-.2,2-1.2-1,.5-2.2Z"/>
          <path class="st60" d="M211,394.3l11.7,2.5,1.9.9,11.6,8,8,10.7,1.2,3.9,2.5,8.3v3.4l-.4,8.6-.5,2.7-1.3,3.7-3.8,7.9-3.3,3.9-4.6,4.3-2,1.3-3.8,1.5-7.7,2.3-3.6.6h-4.3l-5.7-.8-2-.4-6.4-2.9-7.5-5.4-5.5-7.7-.9-1.3-1.5-2.8-2.1-4.8-.7-2.3-1.1-4.8-.7-4.4v-2.7s.7-7.4.7-7.4l.7-3.6,2.1-4.4,2.2-3.9,2.8-3.9,1.4-1.3,2-1.8,2.5-1.9,3.7-2.7,2.1-1,6-1.6,6.1-.9Z"/>
          <path class="st13" d="M220.3,412.3l-13.4,20.2,3.2-25.1,1.7-1.4,2.2-.2,6.2,6.5Z"/>
          <path class="st18" d="M216.4,418.1l-9.5,14.4,18-16.5-8.5,2.1Z"/>
          <path class="st109" d="M209.7,405.9l-2.7,26.6,3.2-25.1,1.7-1.4h-2.1Z"/>
          <path class="st82" d="M205.4,412.5l1.5,20,2.5-24.7-4.1,4.7Z"/>
          <path class="st21" d="M199.4,413.4l7.5,19.1-1.5-20,4.1-4.7.2-1.9-3.6.3-2.1,1.1-4.5,6.1Z"/>
          <path class="st36" d="M196.5,416.6l10.4,16-7.5-19.1-2.9,3.1Z"/>
          <path class="st104" d="M226.2,407l-1.3,9,5.9-4.8-4.7-4.2Z"/>
          <path class="st93" d="M220.3,412.3l-3.8,5.8,8.5-2.1.2-1.3-4.8-2.4Z"/>
          <path class="st101" d="M226.2,407l-2.1-1.6-1.9-.4-8.1.9,6.2,6.5,4.8,2.4,1.1-7.7Z"/>
          <path class="st148" d="M209.6,405.9v-4.1s-3.6,4.4-3.6,4.4l3.6-.3Z"/>
          <path class="st102" d="M203.9,407.3l-11.6,1.4,4.2,7.9,2.9-3.1,4.5-6.1Z"/>
          <path class="st91" d="M206.4,401.8l-1.3,4.8-1.2.6h-1.1c0,.1,1.3-6.8,1.3-6.8l2.3,1.4Z"/>
          <path class="st121" d="M210.1,400.4l-3.7,1.4-1.3,4.9,1-.5,3.6-4.4.5-1.4Z"/>
          <path class="st93" d="M215.5,400l-5.8,3.7v-1.9l.5-1.4-3.7,1.4,2.8-4.3h2.6c0-.1,3.7,2.5,3.7,2.5Z"/>
          <path class="st119" d="M224.1,405.4l-8.6-5.4-5.8,3.7v2.2s2.1.1,2.1.1l2.2-.2,8.1-.9,1.9.4Z"/>
          <path class="st101" d="M218.2,402.4l-1.7,3.1-2.5.3-2.2.2h-2.1v-1.5l6-3.7,2.6,1.6Z"/>
          <path class="st165" d="M192.3,408.7l-1.1,1.8.6,2,3.9,5,.8-.9-4.2-7.9Z"/>
          <path class="st5" d="M206.9,432.5l-11.3-15,.8-.9,10.4,16Z"/>
          <path class="st44" d="M193.8,419.8l1.8-2.4-3.9-5,2.1,7.3Z"/>
          <path class="st3" d="M206.9,432.5l-13.1-8.1-.5-1.3.8-2.5,3.7,3.3,2.7.2,6.3,8.4Z"/>
          <path class="st153" d="M195.6,417.5l-1.8,2.4-.7,3,.6,1.8.2-.2-.5-1.3.8-2.5,3.7,3.3,2.7.2-4.9-6.6Z"/>
          <path class="st36" d="M192.3,408.7l-3.1-2.1-2.3,3.3.3,2,3.2-1.9.8.6,1.1-1.8Z"/>
          <path class="st17" d="M193.1,422.9l-.6.7-5.4-11.7,3.2-1.9.8.6,2.7,9.3-.7,3Z"/>
          <path class="st151" d="M185.1,414.3l6.4,10.7,1-1.4-5.4-11.7-.3-2,.3-4.5-2.8,3.9-2.2,3.9,3,1.1Z"/>
          <path class="st140" d="M180,417.6l5.1-3.3-3-1.1-2.1,4.4Z"/>
          <path class="st42" d="M194.5,431l-.8-6.3-.6-1.8-.6.7-1,1.4-6.4-10.7-5.1,3.3-.7,3.6,1.4,6.4,2.9.6-.7-3.7,11.5,6.5Z"/>
          <path class="st86" d="M204.1,397.1l2.3,4.7-2.3-1.4-5.2-3.7,5.2.3Z"/>
          <path class="st92" d="M209.2,397.5l-5.1-.4,2.3,4.7,2.8-4.3Z"/>
          <path class="st153" d="M198.9,396.8l-5.7,7.9,1.6,3.7,7.9-.9,1.3-7-5.2-3.7Z"/>
          <path class="st4" d="M196.8,397.8l2.1-1-5.7,7.9,1.6,3.7-2.6.3-3.1-2.1,7.7-8.9Z"/>
          <path class="st26" d="M187.2,405.4l2,1.3-2.3,3.3.3-4.5Z"/>
          <path class="st6" d="M190.1,405.6l-1.5-1.5-1.4,1.3,2,1.3.9-1.1Z"/>
          <path class="st150" d="M192.9,402.3h-2.3c0,0-2,1.7-2,1.7l1.5,1.5,2.8-3.2Z"/>
          <path class="st169" d="M196.8,397.8l-3.7,2.7.9.6,2.8-3.3Z"/>
          <path class="st36" d="M190.6,402.3l2.5-1.9.9.6-1.1,1.3h-2.3Z"/>
          <path class="st104" d="M204.1,397.1l.8-1.9-6,1.6,5.2.3Z"/>
          <path class="st148" d="M211,394.3l-3.5,3.1-3.3-.3.8-1.9,6.1-.9Z"/>
          <path class="st169" d="M211.8,397.4l.5-.7-1.3-2.4-3.5,3.1h1.8c0,.1,2.6,0,2.6,0Z"/>
          <path class="st168" d="M222.7,396.8h-10.4c0-.1-1.3-2.5-1.3-2.5l11.7,2.5Z"/>
          <path class="st60" d="M219.8,402.7l-4.2-2.7-3.7-2.6.5-.7h10.4c0,.1-3,6-3,6Z"/>
          <path class="st107" d="M224,405.4l2.5-2-.2-.7-5.7-1.6-.8,1.7,4.3,2.7Z"/>
          <path class="st120" d="M222.7,396.8l1.9.9,1.7,5-5.7-1.6,2.1-4.3Z"/>
          <path class="st120" d="M229.7,402l-3.1,1.4-1.9-5.7,5.1,4.3Z"/>
          <path class="st48" d="M227.2,405.9l-3.1-.5,2.5-2,.6,2.5Z"/>
          <path class="st143" d="M227.9,408.6l-.7-2.7-3.1-.5,2.1,1.6,1.7,1.6Z"/>
          <path class="st103" d="M229.7,402l-.2,3.9h-2.4s-.6-2.5-.6-2.5l3.1-1.4Z"/>
          <path class="st6" d="M233.9,405.4l-2.1.8-2.3-.4.2-3.9,4.3,3.4Z"/>
          <path class="st119" d="M230.8,411.2l4.2-3.8-.3-1.2-.8-.8-2.1.8-2.3-.4h-2.4s.7,2.7.7,2.7l2.9,2.6Z"/>
          <path class="st139" d="M236.2,405.6l-2.3-.2-4.3-3.4-5.1-4.3,11.6,8Z"/>
          <path class="st14" d="M241.7,430.7l-34.8,1.8,18-16.5,5.9-4.8,8.1,6.9,2.8,12.6Z"/>
          <path class="st16" d="M232.6,450.8l-25.7-18.3,34.8-1.8,1.3,4.7-.7,2.1-6.6,9.5-3.1,3.8Z"/>
          <path class="st47" d="M229.5,448.6l1.4,4.2,1.7-2.1-3.1-2.2Z"/>
          <path class="st109" d="M206.9,432.5l.2,1.2,12.7,20.4-7.5-13.5,5.7.6-11-8.7Z"/>
          <path class="st104" d="M228.8,448.1l-3.4,3.5-7.4-10.3-11-8.7,21.9,15.6Z"/>
          <path class="st15" d="M225.1,453l.3-1.4-7.4-10.3-5.7-.6,5.2,9.2,7.7,3.1Z"/>
          <path class="st12" d="M216.3,455.3l3.5-1.2-2.4-4.3,7.7,3.1.2.8-6.1,1.2,9.1,1.1-4.9,6.6-1.9.6-4.2-4.6-1-3.3Z"/>
          <path class="st123" d="M230.9,452.9l-5.6.9-.2-.8.3-1.4,3.4-3.5.7.5,1.4,4.2Z"/>
          <path class="st103" d="M228.3,456.1l2.3-2.5.4-.7-5.6.9-6.1,1.2,9.1,1.1Z"/>
          <path class="st6" d="M214.7,446l-3.1,2.5,2,6.6,6.2-.9-5.1-8.1Z"/>
          <path class="st115" d="M214.4,445.5l-3,2.5v.4c.1,0,3.3-2.5,3.3-2.5l-.3-.5Z"/>
          <path class="st104" d="M207.1,433.7l4.4,14.3,3-2.5-7.3-11.8Z"/>
          <path class="st109" d="M212.8,455.6l-5.7-21.9,6.5,21.4-.8.5Z"/>
          <path class="st108" d="M212.8,455.6l-3.5-2.4,1,2.6,2.5-.2Z"/>
          <path class="st168" d="M211.4,450.1l-.6,4.1,2,1.4-1.4-5.5Z"/>
          <path class="st109" d="M209.7,464l-2.7-7.4,1.1-1.3-.6-3.3,1.7,1.2,1,2.6h-1.5c0,.1,3.4,5.9,3.4,5.9l-1.8,1.7-.6.5Z"/>
          <path class="st109" d="M185.6,451.5l5.5,7.7,7.5,5.4,5.3,2.4,1,.5-5.9-3.1-4.2-5.3-3.4-4.7v-1.7c0,0-1.4-.8-1.4-.8l-.9.7-2.2-1.4-1.4.3Z"/>
          <path class="st32" d="M207.6,452l-3.2-2.6-3.5,3.4-1.5,4.3,1.6,3.5,1-3.4,6.1-1.9-.6-3.3Z"/>
          <path class="st119" d="M207.1,433.7l-1.1.2-6.2,10.6-1.9-.7.5,12.9,1,.3,1.5-4.3,3.5-3.4,3.2,2.6,1.7,1.2,1.5,1,.6-4.1-4.3-16.4Z"/>
          <path class="st2" d="M197.4,442.3l-1.1-.5-3.3,11.9,5.5,3.2-.5-12.9,1.9.7,6.2-10.6-8.6,8.3Z"/>
          <path class="st127" d="M196,438.2l-1.9,1.7,1.9,1.7-3.2,11.9h.2c0,.1,3.3-11.7,3.3-11.7l1.1.5,8.6-8.3-8.7,7.6-1.2-3.3Z"/>
          <path class="st60" d="M194.8,459.2l-3.4-4.7v-1.7c-.1,0,1.3.8,1.3.8h.3c0,.1,5.4,3.3,5.4,3.3l-3.7,2.4Z"/>
          <path class="st101" d="M206.9,432.5l-13.1-8.1-.2.2.8,6.3-5.4-3-2.9,5.3,9,1,.4-1.5,10.4,1.2,1.1-.3-.2-1.2Z"/>
          <path class="st39" d="M189.7,436.1l-3.5-2.8,4.8.6-1.3,2.3Z"/>
          <path class="st29" d="M195.2,434.3l-4.2-.5-1.3,2.3,5.7-1.1.8-.6,6.5-.8-7.1-.8-.4,1.5Z"/>
          <path class="st20" d="M196.6,439.7l3.7-5.8,2.4-.3,3.3.4-8.7,7.6-.7-1.9Z"/>
          <path class="st4" d="M195.4,435l.6,3.2.5,1.5,3.7-5.8-4.1.5-.8.6Z"/>
          <path class="st42" d="M194.1,439.9l-4.4-3.8,5.7-1.1.6,3.2-1.9,1.7Z"/>
          <path class="st24" d="M195.4,441.1l-3.2,12.1.6.3,3.2-11.9-.6-.5Z"/>
          <path class="st132" d="M195,440.8l-4.4,11.6.7.4.8.5,3.2-12.1-.4-.3Z"/>
          <path class="st147" d="M216.5,454.7l.8-4.6,2.6,4.1-3.3.5Z"/>
          <path class="st32" d="M194.5,440.3l-8.8,8.5.5,1.4h-1.5s.9,1.3.9,1.3l1.4-.3,2.2,1.4.9-.7.7.4,4.4-11.6-.5-.4Z"/>
          <path class="st35" d="M180.7,427.5l.4,4.7h4.3s.6-1,.6-1h1.3c0,0,1.8-3.3,1.8-3.3l-6.2-3.5.7,3.7-2.9-.6Z"/>
          <path class="st5" d="M180.7,427.5l-2.1,1,.7-7.4,1.4,6.4Z"/>
          <path class="st42" d="M181.1,432.2l-2.4-1v-2.7s2.1-1,2.1-1l.4,4.7Z"/>
          <path class="st166" d="M181.1,433l-.6.8-1.3-1.1v-1.3c0,0,1.9.8,1.9.8h4.3s.6-1,.6-1h1.3c0,0-1.1,2.1-1.1,2.1l-5.1-.3Z"/>
          <path class="st84" d="M179.4,435.9l-.2-3.2v-1.3c0,0-.6-.2-.6-.2l.7,4.7Z"/>
          <path class="st20" d="M192.8,438.8l-6.9-2.8h-.9c0,0-3.8-1.5-3.8-1.5v-1.6c-.1,0,5,.3,5,.3l3.5,2.8,3.2,2.7Z"/>
          <path class="st81" d="M186.5,434.3l-.9.9-3.5-1.6h3.1c0-.1,1.3.6,1.3.6Z"/>
          <path class="st124" d="M179.4,435.9l1.1,4.5.7.2.3-5.5,3.6,1.3v-.3s-3.8-1.5-3.8-1.5v-1.6c-.1,0-.8.8-.8.8l-1.3-1.1.2,3.2Z"/>
          <path class="st34" d="M181.2,442.8l-.7-2.4.7.2v2.2Z"/>
          <path class="st28" d="M183.2,447.5l1.8-11.1-3.6-1.3-.3,5.5v2.2s2,4.7,2,4.7Z"/>
          <path class="st27" d="M184.7,450.3l-1.4-2.8,1.8-11.1v-.3s.9,0,.9,0l6.9,2.8,1.2,1.1.5.4-8.8,8.5.5,1.4h-1.5Z"/>
          <g class="st99">
            <g>
              <path class="st61" d="M134.7,411l-5.9,1.3-2.5,2.5,2,2.7,5.6,1.9,7.1.3,5.9-1.3,2.4-2.5-1.9-2.7-5.6-1.9-7.1-.3Z"/>
              <path class="st67" d="M134.8,411l-5.8,1.3-2.4,2.4,1.9,2.6,5.5,1.8,7,.3,5.8-1.3,2.4-2.4-1.9-2.6-5.5-1.8-7-.3Z"/>
              <path class="st66" d="M134.9,411.1l-5.7,1.3-2.4,2.4,1.9,2.6,5.4,1.8,6.9.3,5.7-1.3,2.4-2.4-1.9-2.6-5.4-1.8-6.9-.3Z"/>
              <path class="st64" d="M135.1,411.2l-5.6,1.2-2.3,2.3,1.8,2.5,5.3,1.8,6.8.3,5.6-1.2,2.3-2.3-1.8-2.5-5.3-1.8-6.8-.3Z"/>
              <path class="st68" d="M135.2,411.3l-5.5,1.2-2.3,2.3,1.8,2.5,5.2,1.7,6.6.3,5.5-1.2,2.3-2.3-1.8-2.5-5.2-1.7-6.6-.3Z"/>
              <path class="st62" d="M135.3,411.3l-5.4,1.2-2.2,2.2,1.8,2.4,5.1,1.7,6.5.3,5.4-1.2,2.2-2.2-1.8-2.4-5.1-1.7-6.5-.3Z"/>
              <path class="st63" d="M135.5,411.4l-5.3,1.2-2.2,2.2,1.7,2.4,5,1.7,6.4.3,5.3-1.2,2.2-2.2-1.8-2.4-5-1.7-6.4-.3Z"/>
              <path class="st77" d="M135.6,411.5l-5.2,1.1-2.2,2.2,1.7,2.3,4.9,1.6,6.3.3,5.2-1.1,2.2-2.1-1.7-2.3-4.9-1.6-6.3-.3Z"/>
              <path class="st79" d="M135.8,411.6l-5.1,1.1-2.1,2.1,1.7,2.3,4.8,1.6,6.1.3,5.1-1.1,2.1-2.1-1.7-2.3-4.8-1.6-6.1-.3Z"/>
              <path class="st65" d="M135.9,411.6l-5,1.1-2.1,2.1,1.6,2.2,4.7,1.6,6,.3,5-1.1,2.1-2.1-1.6-2.2-4.7-1.6-6-.3Z"/>
              <path class="st75" d="M136,411.7l-4.9,1.1-2,2,1.6,2.2,4.6,1.5,5.9.3,4.9-1.1,2-2-1.6-2.2-4.6-1.5-5.9-.3Z"/>
              <path class="st76" d="M136.2,411.8l-4.8,1-2,2,1.6,2.1,4.5,1.5,5.8.3,4.8-1,2-2-1.6-2.2-4.6-1.5-5.8-.3Z"/>
              <path class="st74" d="M136.3,411.8l-4.7,1-1.9,1.9,1.5,2.1,4.4,1.5,5.7.3,4.7-1,1.9-1.9-1.6-2.1-4.4-1.5-5.6-.3Z"/>
              <path class="st78" d="M136.4,411.9l-4.6,1-1.9,1.9,1.5,2.1,4.3,1.4,5.5.3,4.6-1,1.9-1.9-1.5-2.1-4.4-1.4-5.5-.3Z"/>
              <path class="st69" d="M136.6,412l-4.5,1-1.9,1.8,1.5,2,4.2,1.4,5.4.3,4.5-1,1.9-1.8-1.5-2-4.3-1.4-5.4-.3Z"/>
              <path class="st70" d="M136.7,412.1l-4.4,1-1.8,1.8,1.4,2,4.2,1.4,5.3.3,4.4-1,1.8-1.8-1.4-2-4.1-1.4-5.3-.3Z"/>
              <path class="st72" d="M136.8,412.1l-4.3.9-1.8,1.8,1.4,1.9,4.1,1.3,5.1.3,4.3-.9,1.8-1.8-1.4-1.9-4.1-1.3-5.2-.3Z"/>
              <path class="st71" d="M137,412.2l-4.2.9-1.7,1.7,1.4,1.9,4,1.3,5,.2,4.2-.9,1.7-1.7-1.4-1.9-4-1.3-5-.2Z"/>
              <path class="st73" d="M137.1,412.3l-4.1.9-1.7,1.7,1.3,1.8,3.9,1.3,4.9.2,4.1-.9,1.7-1.7-1.4-1.8-3.9-1.3-4.9-.2Z"/>
              <path class="st80" d="M137.2,412.3l-4,.9-1.7,1.6,1.3,1.8,3.8,1.2,4.8.2,4-.9,1.7-1.6-1.3-1.8-3.8-1.2-4.8-.2Z"/>
              <path class="st60" d="M137.4,412.4l-3.9.8-1.6,1.6,1.3,1.7,3.7,1.2,4.7.2,3.9-.8,1.6-1.6-1.3-1.7-3.7-1.2-4.7-.2Z"/>
              <rect class="st0" x="131.6" y="399.1" width="19" height="19"/>
            </g>
          </g>
        </g>
      </g>
    </g>
  </g>
  <g>
    <path class="st90" d="M37,226.1c.4.5.6,1.1.6,1.9,0,1.1-.4,1.9-1.2,2.5-.8.6-2,.9-3.5.9h-5.8v-12.3h5.5c1.4,0,2.5.3,3.2.8s1.2,1.3,1.2,2.3-.2,1.2-.5,1.7c-.3.5-.8.8-1.3,1.1.8.2,1.4.6,1.8,1.1ZM29.4,224.3h3.1c.7,0,1.3-.1,1.7-.4.4-.3.6-.7.6-1.3s-.2-1-.6-1.3c-.4-.3-1-.4-1.7-.4h-3.1v3.5ZM35.3,227.8c0-1.2-.8-1.8-2.4-1.8h-3.5v3.6h3.5c1.6,0,2.4-.6,2.4-1.8Z"/>
    <path class="st90" d="M55,226.1c.4.5.6,1.1.6,1.9,0,1.1-.4,1.9-1.2,2.5-.8.6-2,.9-3.5.9h-5.8v-12.3h5.5c1.4,0,2.5.3,3.2.8s1.2,1.3,1.2,2.3-.2,1.2-.5,1.7c-.3.5-.8.8-1.3,1.1.8.2,1.4.6,1.8,1.1ZM47.4,224.3h3.1c.7,0,1.3-.1,1.7-.4.4-.3.6-.7.6-1.3s-.2-1-.6-1.3c-.4-.3-1-.4-1.7-.4h-3.1v3.5ZM53.3,227.8c0-1.2-.8-1.8-2.4-1.8h-3.5v3.6h3.5c1.6,0,2.4-.6,2.4-1.8Z"/>
    <path class="st90" d="M66.4,228.5h-6.2l-1.2,2.8h-2.4l5.5-12.3h2.3l5.6,12.3h-2.4l-1.2-2.8ZM65.6,226.7l-2.3-5.4-2.3,5.4h4.6Z"/>
    <path class="st90" d="M87.7,219.1v12.3h-15.8v-12.3h2.3v10.4h4.5v-10.4h2.3v10.4h4.5v-10.4h2.3Z"/>
    <path class="st90" d="M100.4,229.5v1.9h-9.2v-12.3h9v1.9h-6.7v3.2h5.9v1.9h-5.9v3.4h6.9Z"/>
    <path class="st90" d="M114.3,231.4v-8.2s-4.1,6.8-4.1,6.8h-1l-4-6.6v8.1h-2.2v-12.3h1.9l4.9,8.1,4.8-8.1h1.9v12.3s-2.1,0-2.1,0Z"/>
    <path class="st90" d="M135.7,219.1v12.3h-2.3v-10.4h-6.4v10.4h-2.3v-12.3h10.9Z"/>
    <path class="st90" d="M147,219.6c.8.4,1.4.9,1.8,1.5.4.7.6,1.4.6,2.3s-.2,1.7-.6,2.3-1,1.2-1.8,1.5c-.8.4-1.7.5-2.8.5h-2.8v3.6h-2.3v-12.3h5.1c1.1,0,2,.2,2.8.5ZM146.3,225.3c.5-.4.8-1,.8-1.8s-.3-1.4-.8-1.8c-.5-.4-1.3-.6-2.3-.6h-2.7v4.9h2.7c1,0,1.8-.2,2.3-.6Z"/>
    <path class="st90" d="M154.1,230.7c-1-.5-1.8-1.3-2.4-2.3s-.9-2-.9-3.2.3-2.3.9-3.2c.6-1,1.4-1.7,2.4-2.3,1-.5,2.1-.8,3.4-.8s2.4.3,3.4.8c1,.5,1.8,1.3,2.4,2.3s.9,2,.9,3.3-.3,2.3-.9,3.3c-.6,1-1.4,1.7-2.4,2.3s-2.1.8-3.4.8-2.4-.3-3.4-.8ZM159.7,229c.7-.4,1.2-.9,1.5-1.5.4-.7.6-1.4.6-2.2s-.2-1.6-.6-2.2c-.4-.7-.9-1.2-1.5-1.5-.7-.4-1.4-.6-2.2-.6s-1.6.2-2.2.6c-.7.4-1.2.9-1.5,1.5-.4.7-.6,1.4-.6,2.2s.2,1.6.6,2.2c.4.7.9,1.2,1.5,1.5.7.4,1.4.6,2.2.6s1.6-.2,2.2-.6Z"/>
    <path class="st90" d="M179,229c-1.1.9-2.7,1.4-4.8,1.5v1.3h-2.1v-1.3c-2.1-.1-3.7-.6-4.8-1.5-1.1-.9-1.7-2.2-1.7-3.8s.6-2.9,1.7-3.8c1.1-.9,2.7-1.5,4.8-1.6v-1.2h2.1v1.2c2.1.1,3.7.6,4.8,1.6,1.1.9,1.7,2.2,1.7,3.8s-.6,2.9-1.7,3.8ZM168.9,227.7c.7.6,1.8,1,3.2,1.1v-7.1c-2.8.2-4.3,1.4-4.3,3.6s.4,1.9,1.1,2.5ZM177.4,227.7c.7-.6,1.1-1.4,1.1-2.5s-.4-1.9-1.1-2.5c-.7-.6-1.8-.9-3.2-1v7.1c1.4-.1,2.5-.5,3.2-1.1Z"/>
    <path class="st90" d="M183.1,219.1h2.3v8.7l6.6-8.7h2.1v12.3h-2.3v-8.7l-6.6,8.7h-2.1v-12.3Z"/>
    <path class="st90" d="M208,219.1v12.3h-2.3v-10.4h-4.9v3.1c-.2,1.7-.3,3.1-.5,4.2-.2,1.1-.6,1.9-1.1,2.4-.5.6-1.2.8-2,.8s-.7,0-1.2-.2l.2-2c.2,0,.3,0,.5,0,.7,0,1.2-.4,1.5-1.3.3-.9.5-2.2.6-4l.2-5.1h9.1Z"/>
    <path class="st90" d="M220.7,229.5v1.9h-9.2v-12.3h9v1.9h-6.7v3.2h5.9v1.9h-5.9v3.4h6.9Z"/>
    <path class="st90" d="M239,219.1v12.3h-2.3v-5.3h-6.4v5.3h-2.3v-12.3h2.3v5.1h6.4v-5.1h2.3Z"/>
    <path class="st90" d="M251.7,229.5v1.9h-9.2v-12.3h9v1.9h-6.7v3.2h5.9v1.9h-5.9v3.4h6.9Z"/>
    <path class="st90" d="M269.7,219.1l-5.3,9.9c-.5.9-1,1.5-1.7,2-.7.4-1.4.7-2.1.7s-1.2-.1-1.8-.4l.6-1.8c.5.2.9.2,1.2.2.7,0,1.3-.4,1.8-1.1l.2-.3-4.9-9.2h2.4l3.6,7.2,3.7-7.2h2.3Z"/>
    <path class="st90" d="M275.8,226.2h-2.3v5.2h-2.3v-12.3h2.3v5.2h2.4l3.5-5.2h2.4l-4.2,6,4.4,6.3h-2.6l-3.6-5.2Z"/>
    <path class="st90" d="M291.5,228.5h-6.2l-1.2,2.8h-2.4l5.5-12.3h2.3l5.6,12.3h-2.4l-1.2-2.8ZM290.7,226.7l-2.3-5.4-2.3,5.4h4.6Z"/>
    <path class="st90" d="M305.2,226.1c.4.5.6,1.1.6,1.8s-.2,1.4-.7,1.9c-.5.5-1.1,1-1.9,1.3-.8.3-1.7.4-2.6.4s-1.6-.1-2.5-.3c-.8-.2-1.6-.6-2.3-1l.7-1.7c.5.4,1.1.6,1.8.8.7.2,1.3.3,2,.3.9,0,1.7-.2,2.3-.5.6-.4.9-.9.9-1.5s-.2-.9-.7-1.2c-.4-.3-1.1-.4-1.8-.4h-2.9v-1.8h2.7c.7,0,1.2-.1,1.6-.4.4-.3.6-.7.6-1.1s-.3-1-.8-1.3c-.5-.3-1.2-.5-2-.5s-1.1,0-1.7.2c-.6.2-1.1.4-1.7.7l-.7-1.8c.6-.3,1.3-.6,2-.8.7-.2,1.4-.3,2.1-.3s1.8.1,2.5.4c.8.3,1.4.7,1.8,1.2.5.5.7,1.1.7,1.8s-.2,1.1-.5,1.6c-.3.5-.8.8-1.4,1.1.7.2,1.3.6,1.7,1.1Z"/>
    <path class="st90" d="M316.6,228.5h-6.2l-1.2,2.8h-2.4l5.5-12.3h2.3l5.6,12.3h-2.4l-1.2-2.8ZM315.8,226.7l-2.3-5.4-2.3,5.4h4.6Z"/>
    <path class="st90" d="M333,219.1v12.3h-2.3v-5.3h-6.4v5.3h-2.3v-12.3h2.3v5.1h6.4v-5.1h2.3Z"/>
    <path class="st90" d="M338.8,230.7c-1-.5-1.8-1.3-2.4-2.3s-.9-2-.9-3.2.3-2.3.9-3.2c.6-1,1.4-1.7,2.4-2.3,1-.5,2.1-.8,3.4-.8s2.4.3,3.4.8c1,.5,1.8,1.3,2.4,2.3.6,1,.9,2,.9,3.3s-.3,2.3-.9,3.3c-.6,1-1.4,1.7-2.4,2.3s-2.1.8-3.4.8-2.4-.3-3.4-.8ZM344.4,229c.7-.4,1.2-.9,1.5-1.5.4-.7.6-1.4.6-2.2s-.2-1.6-.6-2.2c-.4-.7-.9-1.2-1.5-1.5-.7-.4-1.4-.6-2.2-.6s-1.6.2-2.2.6c-.7.4-1.2.9-1.5,1.5-.4.7-.6,1.4-.6,2.2s.2,1.6.6,2.2c.4.7.9,1.2,1.5,1.5.7.4,1.4.6,2.2.6s1.6-.2,2.2-.6Z"/>
    <path class="st90" d="M82.1,249.1h2.8v8l5.9-8h2.7v12.3h-2.8v-8l-5.9,8h-2.7v-12.3Z"/>
    <path class="st90" d="M108.2,261.4v-7.4s-3.6,6.1-3.6,6.1h-1.3l-3.6-5.9v7.2h-2.7v-12.3h2.4l4.6,7.7,4.5-7.7h2.4v12.3s-2.7,0-2.7,0Z"/>
    <path class="st90" d="M124.2,249.1v12.3h-2.8v-3.3h-2.6l-2.2,3.3h-3l2.6-3.7c-.8-.3-1.5-.9-1.9-1.5-.4-.7-.7-1.5-.7-2.5s.2-1.8.7-2.5c.4-.7,1-1.2,1.8-1.6.8-.4,1.7-.6,2.8-.6h5.3ZM117.1,251.9c-.4.4-.6.9-.6,1.7s.2,1.3.6,1.7c.4.4,1,.6,1.8.6h2.5v-4.5h-2.4c-.8,0-1.4.2-1.9.6Z"/>
    <path class="st90" d="M144.3,249.1v12.3h-2.8v-10h-5.6v10h-2.8v-12.3h11.2Z"/>
    <path class="st90" d="M150.3,260.8c-1-.6-1.8-1.3-2.4-2.3s-.9-2.1-.9-3.3.3-2.3.9-3.3c.6-1,1.4-1.7,2.4-2.3,1-.6,2.2-.8,3.5-.8s2.4.3,3.4.8c1,.6,1.8,1.3,2.4,2.3.6,1,.9,2.1.9,3.3s-.3,2.3-.9,3.3c-.6,1-1.4,1.7-2.4,2.3-1,.6-2.2.8-3.4.8s-2.4-.3-3.5-.8ZM155.7,258.7c.6-.3,1-.8,1.4-1.4.3-.6.5-1.3.5-2s-.2-1.4-.5-2c-.3-.6-.8-1.1-1.4-1.4-.6-.3-1.2-.5-2-.5s-1.4.2-2,.5c-.6.3-1,.8-1.4,1.4-.3.6-.5,1.3-.5,2s.2,1.4.5,2c.3.6.8,1.1,1.4,1.4.6.3,1.2.5,2,.5s1.4-.2,2-.5Z"/>
    <path class="st90" d="M173.7,249.1v12.3h-2.8v-10h-4.2v2.6c-.1,1.7-.3,3.2-.5,4.2-.2,1.1-.6,1.9-1.1,2.5-.5.6-1.3.9-2.2.9s-.9,0-1.4-.2l.2-2.4c.2,0,.3,0,.5,0,.7,0,1.2-.4,1.4-1.2.3-.8.4-2.1.5-3.8l.2-5h9.5Z"/>
    <path class="st90" d="M186.6,254.1c.8.7,1.2,1.7,1.2,3s-.4,2.5-1.3,3.2-2.1,1.1-3.7,1.1h-5.6v-12.3h2.8v4h3.1c1.5,0,2.7.3,3.5,1ZM184.4,258.7c.4-.4.6-.9.6-1.6,0-1.3-.8-1.9-2.4-1.9h-2.6v4h2.6c.7,0,1.3-.2,1.7-.5Z"/>
    <path class="st90" d="M198.7,256.1c.4.5.6,1.1.6,1.8s-.2,1.4-.7,2c-.5.6-1.2,1-2,1.3-.8.3-1.8.4-2.8.4s-1.7-.1-2.5-.3c-.8-.2-1.6-.5-2.4-1l.9-2c.5.3,1.1.6,1.8.7s1.3.3,1.9.3,1.5-.2,2.1-.5c.6-.3.8-.7.8-1.3s-.2-.8-.6-1c-.4-.2-.9-.4-1.6-.4h-3v-2.1h2.8c.6,0,1-.1,1.3-.4.3-.2.5-.6.5-1s-.2-.9-.7-1.1c-.5-.3-1.1-.4-1.8-.4s-1.1,0-1.7.2-1.1.4-1.6.7l-.9-2.2c1.3-.7,2.7-1,4.2-1s1.8.1,2.7.4c.8.3,1.5.7,1.9,1.2.5.5.7,1.2.7,1.9s-.2,1.1-.5,1.6c-.3.5-.8.8-1.3,1.1.7.2,1.3.6,1.7,1.2Z"/>
    <path class="st90" d="M204.4,260.8c-1-.6-1.8-1.3-2.4-2.3s-.9-2.1-.9-3.3.3-2.3.9-3.3c.6-1,1.4-1.7,2.4-2.3,1-.6,2.2-.8,3.5-.8s2.4.3,3.4.8,1.8,1.3,2.4,2.3c.6,1,.9,2.1.9,3.3s-.3,2.3-.9,3.3c-.6,1-1.4,1.7-2.4,2.3-1,.6-2.2.8-3.4.8s-2.4-.3-3.5-.8ZM209.8,258.7c.6-.3,1-.8,1.4-1.4.3-.6.5-1.3.5-2s-.2-1.4-.5-2-.8-1.1-1.4-1.4c-.6-.3-1.2-.5-2-.5s-1.4.2-2,.5c-.6.3-1,.8-1.4,1.4-.3.6-.5,1.3-.5,2s.2,1.4.5,2c.3.6.8,1.1,1.4,1.4.6.3,1.2.5,2,.5s1.4-.2,2-.5Z"/>
    <path class="st90" d="M227.5,256c.4.5.6,1.1.6,1.9,0,1.1-.4,1.9-1.2,2.6-.8.6-2,.9-3.5.9h-6.1v-12.3h5.7c1.4,0,2.5.3,3.3.8.8.6,1.2,1.3,1.2,2.4s-.2,1.1-.5,1.6c-.3.5-.7.8-1.3,1.1.8.2,1.3.6,1.7,1.1ZM220.1,254.2h2.7c.6,0,1.1-.1,1.4-.4.3-.3.5-.6.5-1.1s-.2-.8-.5-1.1c-.3-.3-.8-.4-1.4-.4h-2.7v3ZM225.2,257.7c0-1-.7-1.5-2-1.5h-3.1v3.1h3.1c1.3,0,2-.5,2-1.6Z"/>
    <path class="st90" d="M239.1,258.7h-5.7l-1.1,2.6h-2.9l5.5-12.3h2.8l5.5,12.3h-3l-1.1-2.6ZM238.2,256.6l-2-4.7-2,4.7h3.9Z"/>
    <path class="st90" d="M254.1,251.4h-3.9v10h-2.8v-10h-3.9v-2.3h10.7v2.3Z"/>
    <path class="st90" d="M265.8,259.1v2.3h-9.5v-12.3h9.3v2.3h-6.5v2.7h5.7v2.2h-5.7v2.8h6.7Z"/>
    <path class="st90" d="M279.5,249.1v12.3h-2.8v-10h-4.2v2.6c-.1,1.7-.3,3.2-.5,4.2s-.6,1.9-1.1,2.5c-.5.6-1.3.9-2.2.9s-.9,0-1.4-.2l.2-2.4c.2,0,.3,0,.5,0,.7,0,1.2-.4,1.4-1.2.3-.8.4-2.1.5-3.8l.2-5h9.5Z"/>
    <path class="st90" d="M292.9,249.1v12.3h-2.8v-3.3h-2.6l-2.2,3.3h-3l2.6-3.7c-.8-.3-1.5-.9-1.9-1.5-.4-.7-.7-1.5-.7-2.5s.2-1.8.7-2.5c.4-.7,1-1.2,1.8-1.6.8-.4,1.7-.6,2.8-.6h5.3ZM285.8,251.9c-.4.4-.6.9-.6,1.7s.2,1.3.6,1.7c.4.4,1,.6,1.8.6h2.5v-4.5h-2.4c-.8,0-1.4.2-1.9.6Z"/>
    <path class="st90" d="M54.9,279.1v12.3h-2.3v-10.4h-6.4v10.4h-2.3v-12.3h10.9Z"/>
    <path class="st90" d="M60.6,290.7c-1-.5-1.8-1.3-2.4-2.3s-.9-2-.9-3.2.3-2.3.9-3.2c.6-1,1.4-1.7,2.4-2.3,1-.5,2.1-.8,3.4-.8s2.4.3,3.4.8c1,.5,1.8,1.3,2.4,2.3s.9,2,.9,3.3-.3,2.3-.9,3.3c-.6,1-1.4,1.7-2.4,2.3s-2.1.8-3.4.8-2.4-.3-3.4-.8ZM66.2,289c.7-.4,1.2-.9,1.5-1.5.4-.7.6-1.4.6-2.2s-.2-1.6-.6-2.2c-.4-.7-.9-1.2-1.5-1.5-.7-.4-1.4-.6-2.2-.6s-1.6.2-2.2.6c-.7.4-1.2.9-1.5,1.5-.4.7-.6,1.4-.6,2.2s.2,1.6.6,2.2c.4.7.9,1.2,1.5,1.5.7.4,1.4.6,2.2.6s1.6-.2,2.2-.6Z"/>
    <path class="st90" d="M83.5,286.2h-2.1v5.2h-2.2v-5.2h-2.1l-3.1,5.2h-2.6l3.9-6.4-3.6-5.9h2.4l3,5.2h2.2v-5.2h2.2v5.2h2.1l3-5.2h2.4l-3.6,5.9,3.9,6.4h-2.6l-3.1-5.2Z"/>
    <path class="st90" d="M98.8,288.5h-6.2l-1.2,2.8h-2.4l5.5-12.3h2.3l5.6,12.3h-2.4l-1.2-2.8ZM98,286.7l-2.3-5.4-2.3,5.4h4.6Z"/>
    <path class="st90" d="M114.9,279.1v12.3h-2.3v-10.4h-4.9v3.1c-.2,1.7-.3,3.1-.5,4.2-.2,1.1-.6,1.9-1.1,2.4-.5.6-1.2.8-2,.8s-.7,0-1.2-.2l.2-2c.2,0,.3,0,.5,0,.7,0,1.2-.4,1.5-1.3.3-.9.5-2.2.6-4l.2-5.1h9.1Z"/>
    <path class="st90" d="M128.9,279.1l-5.3,9.9c-.5.9-1,1.5-1.7,2-.7.4-1.4.7-2.1.7s-1.2-.1-1.8-.4l.6-1.8c.5.2.9.2,1.2.2.7,0,1.3-.4,1.8-1.1l.2-.3-4.9-9.2h2.4l3.6,7.2,3.7-7.2h2.3Z"/>
    <path class="st90" d="M130.5,279.1h2.3v8.7l6.6-8.7h2.1v12.3h-2.3v-8.7l-6.6,8.7h-2.1v-12.3ZM133.6,277.6c-.5-.4-.8-1.1-.8-1.9h1.6c0,.4.2.8.4,1,.3.2.7.4,1.2.4s.9-.1,1.2-.4c.3-.2.4-.6.4-1h1.6c0,.8-.3,1.5-.8,1.9-.5.4-1.3.7-2.4.7s-1.9-.2-2.4-.7Z"/>
    <path class="st90" d="M147.3,290.7c-1-.5-1.8-1.3-2.4-2.3-.6-1-.9-2-.9-3.3s.3-2.3.9-3.3,1.4-1.7,2.4-2.3c1-.5,2.1-.8,3.4-.8s1.9.2,2.8.5c.8.4,1.5.9,2.1,1.5l-1.5,1.4c-.9-1-2-1.4-3.3-1.4s-1.6.2-2.3.6c-.7.4-1.2.9-1.6,1.5-.4.7-.6,1.4-.6,2.2s.2,1.6.6,2.2c.4.7.9,1.2,1.6,1.5.7.4,1.4.6,2.3.6,1.3,0,2.4-.5,3.3-1.5l1.5,1.4c-.6.7-1.3,1.2-2.1,1.5-.8.4-1.8.5-2.8.5s-2.4-.3-3.4-.8Z"/>
    <path class="st90" d="M166.5,281h-4.1v10.4h-2.3v-10.4h-4.1v-1.9h10.4v1.9Z"/>
    <path class="st90" d="M176,288.5h-6.2l-1.2,2.8h-2.4l5.5-12.3h2.3l5.6,12.3h-2.4l-1.2-2.8ZM175.2,286.7l-2.3-5.4-2.3,5.4h4.6Z"/>
    <path class="st90" d="M183.5,289c.3.3.4.6.4,1.1s0,.4,0,.6-.2.5-.3.9l-.9,2.5h-1.4l.7-2.7c-.3-.1-.5-.3-.6-.5-.1-.2-.2-.5-.2-.8,0-.4.1-.8.4-1.1s.6-.4,1-.4.8.1,1,.4Z"/>
    <path class="st90" d="M203.4,289.4v4.6h-2.1v-2.6h-9.4v2.6h-2.1v-4.6h.5c.8,0,1.3-.6,1.6-1.7.3-1.1.5-2.7.6-4.8v-3.9h9.2v10.4h1.8ZM194.1,287.2c-.2,1.1-.5,1.8-.9,2.3h6.2v-8.4h-4.8v2.2c-.1,1.6-.3,2.9-.5,4Z"/>
    <path class="st90" d="M207.9,290.7c-1-.5-1.8-1.3-2.4-2.3s-.9-2-.9-3.2.3-2.3.9-3.2c.6-1,1.4-1.7,2.4-2.3,1-.5,2.1-.8,3.4-.8s2.4.3,3.4.8c1,.5,1.8,1.3,2.4,2.3.6,1,.9,2,.9,3.3s-.3,2.3-.9,3.3c-.6,1-1.4,1.7-2.4,2.3s-2.1.8-3.4.8-2.4-.3-3.4-.8ZM213.5,289c.7-.4,1.2-.9,1.5-1.5.4-.7.6-1.4.6-2.2s-.2-1.6-.6-2.2c-.4-.7-.9-1.2-1.5-1.5-.7-.4-1.4-.6-2.2-.6s-1.6.2-2.2.6c-.7.4-1.2.9-1.5,1.5-.4.7-.6,1.4-.6,2.2s.2,1.6.6,2.2c.4.7.9,1.2,1.5,1.5.7.4,1.4.6,2.2.6s1.6-.2,2.2-.6Z"/>
    <path class="st90" d="M220.4,279.1h9.6v1.9h-7.3v3h3.6c1.5,0,2.6.3,3.4.9.8.6,1.2,1.5,1.2,2.7s-.4,2.2-1.3,2.8c-.8.7-2,1-3.6,1h-5.5v-12.3ZM225.9,289.6c.9,0,1.5-.2,2-.5.5-.3.7-.8.7-1.5,0-1.3-.9-1.9-2.7-1.9h-3.2v3.9h3.2Z"/>
    <path class="st90" d="M241.4,288.5h-6.2l-1.2,2.8h-2.4l5.5-12.3h2.3l5.6,12.3h-2.4l-1.2-2.8ZM240.7,286.7l-2.3-5.4-2.3,5.4h4.6Z"/>
    <path class="st90" d="M256.8,286.1c.4.5.6,1.1.6,1.9,0,1.1-.4,1.9-1.2,2.5-.8.6-2,.9-3.5.9h-5.8v-12.3h5.5c1.4,0,2.5.3,3.2.8.8.6,1.2,1.3,1.2,2.3s-.2,1.2-.5,1.7c-.3.5-.8.8-1.3,1.1.8.2,1.4.6,1.8,1.1ZM249.2,284.3h3.1c.7,0,1.3-.1,1.7-.4.4-.3.6-.7.6-1.3s-.2-1-.6-1.3c-.4-.3-1-.4-1.7-.4h-3.1v3.5ZM255.1,287.8c0-1.2-.8-1.8-2.4-1.8h-3.5v3.6h3.5c1.6,0,2.4-.6,2.4-1.8Z"/>
    <path class="st90" d="M269.1,284.2c.8.7,1.2,1.6,1.2,2.9s-.4,2.4-1.3,3.1-2.1,1.1-3.7,1.1h-5.3v-12.3h2.3v4.2h3.4c1.5,0,2.6.3,3.4,1ZM267.3,289c.5-.4.7-1,.7-1.8,0-1.5-.9-2.2-2.8-2.2h-2.9v4.6h2.9c.9,0,1.6-.2,2.1-.6Z"/>
    <path class="st90" d="M280.4,281h-4.1v10.4h-2.3v-10.4h-4.1v-1.9h10.4v1.9Z"/>
    <path class="st90" d="M291.6,289.5v1.9h-9.2v-12.3h9v1.9h-6.7v3.2h5.9v1.9h-5.9v3.4h6.9Z"/>
    <path class="st90" d="M308.2,289.5v1.9h-9.2v-12.3h9v1.9h-6.7v3.2h5.9v1.9h-5.9v3.4h6.9Z"/>
    <path class="st90" d="M319.1,281h-6.1v10.4s-2.2,0-2.2,0v-12.3h8.4v1.9Z"/>
    <path class="st90" d="M321.9,290.7c-1-.5-1.8-1.3-2.4-2.3s-.9-2-.9-3.2.3-2.3.9-3.2c.6-1,1.4-1.7,2.4-2.3,1-.5,2.1-.8,3.4-.8s2.4.3,3.4.8c1,.5,1.8,1.3,2.4,2.3.6,1,.9,2,.9,3.3s-.3,2.3-.9,3.3c-.6,1-1.4,1.7-2.4,2.3s-2.1.8-3.4.8-2.4-.3-3.4-.8ZM327.6,289c.7-.4,1.2-.9,1.5-1.5.4-.7.6-1.4.6-2.2s-.2-1.6-.6-2.2c-.4-.7-.9-1.2-1.5-1.5-.7-.4-1.4-.6-2.2-.6s-1.6.2-2.2.6c-.7.4-1.2.9-1.5,1.5-.4.7-.6,1.4-.6,2.2s.2,1.6.6,2.2c.4.7.9,1.2,1.5,1.5.7.4,1.4.6,2.2.6s1.6-.2,2.2-.6Z"/>
    <path class="st90" d="M70.5,319.4v4.6h-2.1v-2.6h-9.4v2.6h-2.1v-4.6h.5c.8,0,1.3-.6,1.6-1.7.3-1.1.5-2.7.6-4.8v-3.9h9.2v10.4h1.8ZM61.2,317.2c-.2,1.1-.5,1.8-.9,2.3h6.2v-8.4h-4.8v2.2c-.1,1.6-.3,2.9-.5,4Z"/>
    <path class="st90" d="M83.2,309.1v12.3h-2.3v-10.4h-4.9v3.1c-.2,1.7-.3,3.1-.5,4.2-.2,1.1-.6,1.9-1.1,2.4-.5.6-1.2.8-2,.8s-.7,0-1.2-.2l.2-2c.2,0,.3,0,.5,0,.7,0,1.2-.4,1.5-1.3.3-.9.5-2.2.6-4l.2-5.1h9.1Z"/>
    <path class="st90" d="M96,309.1v12.3h-2.3v-3.4h-3.3l-2.3,3.4h-2.4l2.6-3.8c-.9-.3-1.5-.8-2-1.5-.5-.7-.7-1.5-.7-2.5s.2-1.7.6-2.4c.4-.7,1-1.2,1.8-1.6.8-.4,1.7-.5,2.7-.5h5.1ZM88.8,311.6c-.5.4-.7,1.1-.7,1.9s.2,1.4.7,1.9c.5.4,1.2.7,2.1.7h2.9v-5.1h-2.8c-.9,0-1.7.2-2.2.7Z"/>
    <path class="st90" d="M114.9,309.1l-5.3,9.9c-.5.9-1,1.5-1.7,2-.7.4-1.4.7-2.1.7s-1.2-.1-1.8-.4l.6-1.8c.5.2.9.2,1.2.2.7,0,1.3-.4,1.8-1.1l.2-.3-4.9-9.2h2.4l3.6,7.2,3.7-7.2h2.3Z"/>
    <path class="st90" d="M126.4,309.1v12.3h-2.3v-4.6c-1.2.4-2.3.7-3.3.7-1.6,0-2.8-.4-3.6-1.1-.9-.8-1.3-1.8-1.3-3.3v-3.9h2.3v3.7c0,.9.3,1.5.8,2,.5.5,1.2.7,2.2.7s2.1-.2,3-.7v-5.7h2.3Z"/>
    <path class="st90" d="M138,318.5h-6.2l-1.2,2.8h-2.4l5.5-12.3h2.3l5.6,12.3h-2.4l-1.2-2.8ZM137.2,316.7l-2.3-5.4-2.3,5.4h4.6Z"/>
    <path class="st90" d="M145.6,320.7c-1-.5-1.8-1.3-2.4-2.3-.6-1-.9-2-.9-3.3s.3-2.3.9-3.3,1.4-1.7,2.4-2.3c1-.5,2.1-.8,3.4-.8s1.9.2,2.8.5c.8.4,1.5.9,2.1,1.5l-1.5,1.4c-.9-1-2-1.4-3.3-1.4s-1.6.2-2.3.6c-.7.4-1.2.9-1.6,1.5-.4.7-.6,1.4-.6,2.2s.2,1.6.6,2.2c.4.7.9,1.2,1.6,1.5.7.4,1.4.6,2.3.6,1.3,0,2.4-.5,3.3-1.5l1.5,1.4c-.6.7-1.3,1.2-2.1,1.5-.8.4-1.8.5-2.8.5s-2.4-.3-3.4-.8Z"/>
    <path class="st90" d="M164.8,311h-4.1v10.4h-2.3v-10.4h-4.1v-1.9h10.4v1.9Z"/>
    <path class="st90" d="M166.8,309.1h2.3v8.7l6.6-8.7h2.1v12.3h-2.3v-8.7l-6.6,8.7h-2.1v-12.3Z"/>
    <path class="st90" d="M190.6,309.1v12.3h-2.3v-3.4h-3.3l-2.3,3.4h-2.4l2.6-3.8c-.9-.3-1.5-.8-2-1.5-.5-.7-.7-1.5-.7-2.5s.2-1.7.6-2.4c.4-.7,1-1.2,1.8-1.6.8-.4,1.7-.5,2.7-.5h5.1ZM183.4,311.6c-.5.4-.7,1.1-.7,1.9s.2,1.4.7,1.9c.5.4,1.2.7,2.1.7h2.9v-5.1h-2.8c-.9,0-1.7.2-2.2.7Z"/>
    <path class="st90" d="M208.9,316.1c.4.5.6,1.1.6,1.9,0,1.1-.4,1.9-1.2,2.5-.8.6-2,.9-3.5.9h-5.8v-12.3h5.5c1.4,0,2.5.3,3.2.8.8.6,1.2,1.3,1.2,2.3s-.2,1.2-.5,1.7c-.3.5-.8.8-1.3,1.1.8.2,1.4.6,1.8,1.1ZM201.2,314.3h3.1c.7,0,1.3-.1,1.7-.4.4-.3.6-.7.6-1.3s-.2-1-.6-1.3c-.4-.3-1-.4-1.7-.4h-3.1v3.5ZM207.2,317.8c0-1.2-.8-1.8-2.4-1.8h-3.5v3.6h3.5c1.6,0,2.4-.6,2.4-1.8Z"/>
    <path class="st90" d="M221.5,316.2h-2.3v5.2h-2.3v-12.3h2.3v5.2h2.4l3.5-5.2h2.4l-4.2,6,4.4,6.3h-2.6l-3.6-5.2Z"/>
    <path class="st90" d="M231.5,320.7c-1-.5-1.8-1.3-2.4-2.3s-.9-2-.9-3.2.3-2.3.9-3.2c.6-1,1.4-1.7,2.4-2.3,1-.5,2.1-.8,3.4-.8s2.4.3,3.4.8c1,.5,1.8,1.3,2.4,2.3.6,1,.9,2,.9,3.3s-.3,2.3-.9,3.3c-.6,1-1.4,1.7-2.4,2.3s-2.1.8-3.4.8-2.4-.3-3.4-.8ZM237.1,319c.7-.4,1.2-.9,1.5-1.5.4-.7.6-1.4.6-2.2s-.2-1.6-.6-2.2c-.4-.7-.9-1.2-1.5-1.5-.7-.4-1.4-.6-2.2-.6s-1.6.2-2.2.6c-.7.4-1.2.9-1.5,1.5-.4.7-.6,1.4-.6,2.2s.2,1.6.6,2.2c.4.7.9,1.2,1.5,1.5.7.4,1.4.6,2.2.6s1.6-.2,2.2-.6Z"/>
    <path class="st90" d="M255,309.1v12.3h-2.3v-5.3h-6.4v5.3h-2.3v-12.3h2.3v5.1h6.4v-5.1h2.3Z"/>
    <path class="st90" d="M263,316.2h-2.3v5.2h-2.3v-12.3h2.3v5.2h2.4l3.5-5.2h2.4l-4.2,6,4.4,6.3h-2.6l-3.6-5.2Z"/>
    <path class="st90" d="M281.5,309.1l-5.3,9.9c-.5.9-1,1.5-1.7,2-.7.4-1.4.7-2.1.7s-1.2-.1-1.8-.4l.6-1.8c.5.2.9.2,1.2.2.7,0,1.3-.4,1.8-1.1l.2-.3-4.9-9.2h2.4l3.6,7.2,3.7-7.2h2.3Z"/>
    <path class="st90" d="M290.9,309.6c.8.4,1.4.9,1.8,1.5.4.7.6,1.4.6,2.3s-.2,1.7-.6,2.3c-.4.7-1,1.2-1.8,1.5-.8.4-1.7.5-2.8.5h-2.8v3.6h-2.3v-12.3h5.1c1.1,0,2,.2,2.8.5ZM290.3,315.3c.5-.4.8-1,.8-1.8s-.3-1.4-.8-1.8c-.5-.4-1.3-.6-2.3-.6h-2.7v4.9h2.7c1,0,1.8-.2,2.3-.6Z"/>
    <path class="st90" d="M298,320.7c-1-.5-1.8-1.3-2.4-2.3-.6-1-.9-2-.9-3.3s.3-2.3.9-3.3,1.4-1.7,2.4-2.3c1-.5,2.1-.8,3.4-.8s1.9.2,2.8.5c.8.4,1.5.9,2.1,1.5l-1.5,1.4c-.9-1-2-1.4-3.3-1.4s-1.6.2-2.3.6c-.7.4-1.2.9-1.6,1.5-.4.7-.6,1.4-.6,2.2s.2,1.6.6,2.2c.4.7.9,1.2,1.6,1.5.7.4,1.4.6,2.3.6,1.3,0,2.4-.5,3.3-1.5l1.5,1.4c-.6.7-1.3,1.2-2.1,1.5-.8.4-1.8.5-2.8.5s-2.4-.3-3.4-.8Z"/>
    <path class="st90" d="M317.6,319.5v1.9h-9.2v-12.3h9v1.9h-6.7v3.2h5.9v1.9h-5.9v3.4h6.9Z"/>
  </g>
  <g class="st98">
    <g>
      <path class="st129" d="M128.1,162.4c-1.1-.3-1.9-.7-2.6-1.2l1.1-2.4c.6.4,1.3.8,2.2,1.1.9.3,1.7.4,2.5.4s1.6-.1,2.1-.4c.4-.3.7-.6.7-1.1s-.1-.6-.4-.8c-.3-.2-.6-.4-1-.5-.4-.1-1-.3-1.7-.4-1.1-.3-2-.5-2.7-.8-.7-.3-1.3-.7-1.8-1.2-.5-.6-.7-1.3-.7-2.2s.2-1.5.7-2.2c.5-.7,1.1-1.2,2-1.6.9-.4,2-.6,3.3-.6s1.8.1,2.7.3c.9.2,1.6.5,2.3.9l-1,2.4c-1.3-.7-2.7-1.1-4-1.1s-1.6.1-2.1.4c-.4.3-.7.7-.7,1.2s.3.8.8,1.1c.5.2,1.3.5,2.3.7,1.1.2,2,.5,2.7.8.7.2,1.3.6,1.8,1.2.5.5.7,1.3.7,2.2s-.2,1.5-.7,2.2c-.5.7-1.1,1.2-2.1,1.6-.9.4-2,.6-3.3.6s-2.2-.1-3.3-.4"/>
      <path class="st129" d="M147.5,161.2c-1.1-1.1-1.7-2.7-1.7-4.7v-7.8h3.3v7.7c0,2.5,1.1,3.7,3.2,3.7s1.8-.3,2.4-.9c.5-.6.8-1.6.8-2.8v-7.7h3.3v7.8c0,2-.6,3.6-1.7,4.7-1.1,1.1-2.7,1.7-4.8,1.7s-3.6-.5-4.8-1.7Z"/>
      <path class="st129" d="M181.2,148.7v13.9h-2.2l-7.9-9.4v9.4h-2.6v-13.9h2.2l7.9,9.4v-9.4h2.6Z"/>
      <path class="st129" d="M191,148.7h3.3v11.3h7.2v2.6h-10.5v-13.9Z"/>
      <path class="st129" d="M212.8,148.7h-3.3v13.9h3.3v-13.9Z"/>
      <path class="st129" d="M232.1,155.4h3v5.7c-.8.6-1.7,1-2.7,1.3-1,.3-2.1.5-3.1.5-1.5,0-2.8-.3-4-.9-1.2-.6-2.1-1.5-2.8-2.6-.7-1.1-1-2.3-1-3.7s.3-2.6,1-3.7c.7-1.1,1.6-2,2.8-2.6,1.2-.6,2.6-.9,4.1-.9s2.4.2,3.4.6c1,.4,1.9,1,2.6,1.8l-2.1,1.9c-1-1.1-2.3-1.6-3.7-1.6s-1.7.2-2.4.6c-.7.4-1.3.9-1.7,1.6-.4.7-.6,1.4-.6,2.3s.2,1.6.6,2.3c.4.7.9,1.2,1.7,1.6.7.4,1.5.6,2.4.6s1.8-.2,2.6-.6v-4.1h0Z"/>
      <path class="st129" d="M257.5,148.7v13.9h-3.3v-5.7h-6.5v5.7h-3.3v-13.9h3.3v5.5h6.5v-5.5h3.3Z"/>
      <path class="st129" d="M270.1,151.3h-4.6v-2.6h12.5v2.6h-4.6v11.3h-3.3v-11.3Z"/>
      <path class="st129" d="M105.7,149.2v12.6c0,2.9-2.4,5.2-5.3,5.2h-13c-3,0-5.3-2.3-5.3-5.2v-12.6c0-2.9,2.4-5.2,5.3-5.2h13c3,0,5.3,2.3,5.3,5.2Z"/>
      <path class="st109" d="M101.7,157.2c0,2.8-2.4,5.1-5.3,5.1h-4.9c-2.9,0-5.3-2.3-5.3-5.1s0-.5,0-.7c0,0,0,.1.1.2,0,0,0,0,0,.1,0,0,.1.2.2.3,0,0,0,0,0,0,0,.1.2.2.3.3,0,0,0,0,0,0,0,0,.1.1.2.2,0,0,0,0,.1.1,0,0,.1.1.2.2,0,0,0,0,.1.1,0,0,.1.1.2.2,0,0,0,0,.1,0,0,0,.2.1.2.1,0,0,0,0,.1,0,.1,0,.2.1.3.2,0,0,0,0,0,0,.1,0,.3.1.4.2,0,0,0,0,.1,0,0,0,.2,0,.3.1,0,0,.1,0,.2,0,0,0,.2,0,.3,0,0,0,.1,0,.2,0,0,0,.2,0,.3,0,0,0,.1,0,.2,0,0,0,.2,0,.3,0,0,0,0,0,.1,0,.1,0,.3,0,.4,0h4.9c.5,0,1-.2,1.4-.4.6-.4.9-1,.9-1.8s-.3-1.2-.7-1.6c0,0,0,0,0,0,0,0-.2-.1-.2-.2,0,0-.1,0-.2-.1-.3-.2-.7-.3-1.2-.3h-4.9c-.2,0-.3,0-.4,0-.4-.1-.8-.4-1-.8,0-.2-.1-.4-.1-.6s0-.4.1-.5c.1-.3.3-.5.6-.7.2-.2.5-.3.8-.3h4.9c2.1,0,4,1.2,4.8,3.1,0,.1.1.2.2.4.2.5.3,1.1.3,1.7h0Z"/>
      <path class="st109" d="M86.4,155.2c-.2-.5-.3-1.1-.3-1.7,0-2.8,2.4-5.1,5.3-5.1h4.9c2.9,0,5.3,2.3,5.3,5.1s0,.5,0,.7c0,0,0-.1,0-.1,0,0,0,0,0-.1,0,0-.1-.2-.2-.2,0,0,0,0,0,0,0-.1-.2-.2-.3-.3,0,0,0,0,0,0,0,0-.1-.1-.2-.2,0,0,0,0-.1-.1,0,0-.1-.1-.2-.2,0,0,0,0-.1-.1,0,0-.1-.1-.2-.2,0,0,0,0-.1-.1,0,0-.2,0-.2-.1,0,0,0,0-.1,0-.1,0-.2-.1-.3-.2,0,0,0,0,0,0-.1,0-.3-.1-.4-.2,0,0,0,0-.1,0,0,0-.2,0-.3,0,0,0-.1,0-.2,0,0,0-.2,0-.3,0,0,0-.1,0-.2,0,0,0-.2,0-.3,0,0,0-.1,0-.2,0,0,0-.2,0-.3,0,0,0,0,0-.2,0-.1,0-.3,0-.4,0h-4.9c-.8,0-1.4.4-1.8.9-.3.4-.4.8-.4,1.3s.2,1.1.6,1.5c0,0,0,0,0,0,0,0,0,0,0,0,0,0,0,0,0,0,0,0,0,0,0,0,0,0,0,0,.1,0,0,0,0,0,0,0,0,0,0,0,.2,0,.3.2.7.3,1.1.3h4.9c.8,0,1.5.7,1.5,1.5s0,.4-.1.6c-.2.5-.8.9-1.4.9h-4.9c-1.8,0-3.4-.9-4.4-2.2-.3-.4-.5-.8-.6-1.2h0Z"/>
    </g>
  </g>
</svg>